G75*
G71*
%OFA0B0*%
%FSLAX23Y23*%
%IPPOS*%
%LPD*%
%ADD10C,0.1*%
%ADD11C,0.111*%
%ADD12C,0.152*%
%ADD13C,NaN*%
%ADD14C,0.25*%
%LPD*%D10*
X0Y0D02*
X0Y100D01*
X0Y200D01*
X0Y300D01*
X0Y400D01*
X0Y499D01*
X0Y599D01*
X0Y699D01*
X0Y799D01*
X0Y899D01*
X0Y999D01*
X0Y1099D01*
X0Y1199D01*
X0Y1299D01*
X0Y1398D01*
X0Y1498D01*
X0Y1598D01*
X0Y1698D01*
X0Y1798D01*
X0Y1898D01*
X0Y1998D01*
X0Y2098D01*
X0Y2198D01*
X0Y2297D01*
X0Y2397D01*
X0Y2497D01*
X0Y2597D01*
X0Y2697D01*
X0Y2797D01*
X0Y2897D01*
X0Y2997D01*
X0Y3097D01*
X0Y3196D01*
X0Y3296D01*
X0Y3396D01*
X0Y3496D01*
X0Y3596D01*
X0Y3696D01*
X0Y3796D01*
X0Y3896D01*
X0Y3995D01*
X0Y4095D01*
X0Y4195D01*
X0Y4295D01*
X0Y4395D01*
X0Y4495D01*
X0Y4595D01*
X0Y4695D01*
X0Y4795D01*
X0Y4894D01*
X0Y4994D01*
X0Y5094D01*
X0Y5194D01*
X0Y5294D01*
X0Y5394D01*
X0Y5494D01*
X0Y5594D01*
X0Y5694D01*
X0Y5793D01*
X0Y5893D01*
X0Y5993D01*
X0Y6093D01*
X0Y6193D01*
X0Y6293D01*
X0Y6393D01*
X0Y6493D01*
X0Y6593D01*
X0Y6692D01*
X0Y6792D01*
X0Y6892D01*
X0Y6992D01*
X0Y7092D01*
X0Y7192D01*
X0Y7292D01*
X0Y7392D01*
X0Y7492D01*
X0Y7591D01*
X0Y7691D01*
X0Y7791D01*
X0Y7891D01*
X0Y7991D01*
X0Y8091D01*
X0Y8191D01*
X0Y8291D01*
X0Y8391D01*
X0Y8490D01*
X0Y8590D01*
X0Y8690D01*
X0Y8790D01*
X0Y8890D01*
X0Y8990D01*
X0Y9090D01*
X0Y9190D01*
X0Y9290D01*
X0Y9389D01*
X0Y9489D01*
X0Y9589D01*
X0Y9689D01*
X0Y9789D01*
X0Y9889D01*
X0Y9989D01*
X0Y10089D01*
X0Y10188D01*
X0Y10288D01*
X0Y10388D01*
X0Y10488D01*
X0Y10588D01*
X0Y10688D01*
X0Y10788D01*
X0Y10888D01*
X0Y10988D01*
X0Y11087D01*
X0Y11187D01*
X0Y11287D01*
X0Y11387D01*
X0Y11487D01*
X0Y11587D01*
X0Y11687D01*
X0Y11787D01*
X0Y11887D01*
X0Y11986D01*
X0Y12086D01*
X0Y12186D01*
X0Y12286D01*
X0Y12386D01*
X0Y12486D01*
X0Y12586D01*
X0Y12686D01*
X0Y12786D01*
X0Y12885D01*
X0Y12985D01*
X0Y13085D01*
X0Y13185D01*
X0Y13285D01*
X0Y13385D01*
X0Y13485D01*
X0Y13585D01*
X0Y13685D01*
X0Y13784D01*
X0Y13884D01*
X0Y13984D01*
X0Y14084D01*
X0Y14184D01*
X0Y14284D01*
X0Y14384D01*
X0Y14484D01*
X0Y14584D01*
X0Y14683D01*
X0Y14783D01*
X0Y14883D01*
X0Y14983D01*
X0Y15083D01*
X0Y15183D01*
X0Y15283D01*
X0Y15383D01*
X0Y15483D01*
X0Y15582D01*
X0Y15682D01*
X0Y15782D01*
X0Y15882D01*
X0Y15982D01*
X0Y16082D01*
X0Y16182D01*
X0Y16282D01*
X0Y16381D01*
X0Y16481D01*
X0Y16581D01*
X0Y16681D01*
X0Y16781D01*
X0Y16881D01*
X0Y16981D01*
X0Y17081D01*
X0Y17181D01*
X0Y17280D01*
X0Y17380D01*
X0Y17480D01*
X0Y17580D01*
X0Y17680D01*
X0Y17780D01*
X0Y17880D01*
X0Y17980D01*
X0Y18080D01*
X0Y18179D01*
X0Y18279D01*
X0Y18379D01*
X0Y18479D01*
X0Y18579D01*
X0Y18679D01*
X0Y18779D01*
X0Y18879D01*
X0Y18979D01*
X0Y19078D01*
X0Y19178D01*
X0Y19278D01*
X0Y19378D01*
X0Y19478D01*
X0Y19578D01*
X0Y19678D01*
X0Y19778D01*
X0Y19878D01*
X0Y19977D01*
X0Y20077D01*
X0Y20177D01*
X0Y20277D01*
X0Y20377D01*
X0Y20477D01*
X0Y20577D01*
X0Y20677D01*
X0Y20777D01*
X0Y20876D01*
X0Y20976D01*
X0Y21076D01*
X0Y21176D01*
X0Y21276D01*
X0Y21376D01*
X0Y21476D01*
X0Y21576D01*
X0Y21676D01*
X0Y21775D01*
X0Y21875D01*
X0Y21975D01*
X0Y22075D01*
X0Y22175D01*
X0Y22275D01*
X0Y22375D01*
X0Y22475D01*
X0Y22575D01*
X0Y22674D01*
X0Y22774D01*
X0Y22874D01*
X0Y22974D01*
X0Y23074D01*
X0Y23174D01*
X0Y23274D01*
X0Y23374D01*
X0Y23473D01*
X0Y23573D01*
X0Y23673D01*
X0Y23773D01*
X0Y23873D01*
X0Y23973D01*
X0Y24073D01*
X0Y24173D01*
X0Y24273D01*
X0Y24372D01*
X0Y24472D01*
X0Y24572D01*
X0Y24672D01*
X0Y24772D01*
X0Y24872D01*
X0Y24972D01*
X0Y25072D01*
X0Y25172D01*
X0Y25271D01*
X0Y25371D01*
X0Y25471D01*
X0Y25571D01*
X0Y25671D01*
X0Y25771D01*
X0Y25871D01*
X0Y25971D01*
X0Y26071D01*
X0Y26170D01*
X0Y26270D01*
X0Y26370D01*
X0Y26470D01*
X0Y26570D01*
X0Y26670D01*
X0Y26770D01*
X0Y26870D01*
X0Y26970D01*
X0Y27069D01*
X0Y27169D01*
X0Y27269D01*
X0Y27369D01*
X0Y27469D01*
X0Y27569D01*
X0Y27669D01*
X0Y27769D01*
X0Y27869D01*
X0Y27968D01*
X0Y28068D01*
X0Y28168D01*
X0Y28268D01*
X0Y28368D01*
X0Y28468D01*
X0Y28568D01*
X0Y28668D01*
X0Y28768D01*
X0Y28867D01*
X0Y28967D01*
X0Y29067D01*
X0Y29167D01*
X0Y29267D01*
X0Y29367D01*
X0Y29467D01*
X0Y29567D01*
X0Y29667D01*
X0Y29766D01*
X0Y29866D01*
X0Y29966D01*
X0Y30066D01*
X0Y30166D01*
X0Y30266D01*
X0Y30366D01*
X0Y30466D01*
X0Y30565D01*
X0Y30665D01*
X0Y30765D01*
X0Y30865D01*
X0Y30965D01*
X0Y31065D01*
X0Y31165D01*
X0Y31265D01*
X0Y31365D01*
X0Y31464D01*
X0Y31564D01*
X0Y31664D01*
X0Y31764D01*
X0Y31864D01*
X0Y31964D01*
X0Y32064D01*
X0Y32164D01*
X0Y32264D01*
X0Y32363D01*
X0Y32463D01*
X0Y32563D01*
X0Y32663D01*
X0Y32763D01*
X0Y32863D01*
X0Y32963D01*
X0Y33063D01*
X0Y33163D01*
X0Y33262D01*
X0Y33362D01*
X0Y33462D01*
X0Y33562D01*
X0Y33662D01*
X0Y33762D01*
X0Y33862D01*
X0Y33962D01*
X0Y34062D01*
X0Y34161D01*
X0Y34261D01*
X0Y34361D01*
X0Y34461D01*
X0Y34561D01*
X0Y34661D01*
X0Y34761D01*
X0Y34861D01*
X0Y34961D01*
X0Y35060D01*
X0Y35160D01*
X0Y35260D01*
X0Y35360D01*
X0Y35460D01*
X0Y35560D01*
X0Y35660D01*
X0Y35760D01*
X0Y35860D01*
X0Y35959D01*
X0Y36059D01*
X0Y36159D01*
X0Y36259D01*
X0Y36359D01*
X0Y36459D01*
X0Y36559D01*
X0Y36659D01*
X0Y36759D01*
X0Y36858D01*
X0Y36958D01*
X0Y37058D01*
X0Y37158D01*
X0Y37258D01*
X0Y37358D01*
X0Y37458D01*
X0Y37558D01*
X0Y37658D01*
X0Y37757D01*
X0Y37857D01*
X0Y37957D01*
X0Y38057D01*
X0Y38157D01*
X0Y38257D01*
X0Y38357D01*
X0Y38457D01*
X0Y38556D01*
X0Y38656D01*
X0Y38756D01*
X0Y38856D01*
X0Y38956D01*
X0Y39056D01*
X0Y39156D01*
X0Y39256D01*
X0Y39356D01*
X0Y39455D01*
X0Y39555D01*
X0Y39655D01*
X0Y39755D01*
X0Y39855D01*
X0Y39955D01*
X0Y40055D01*
X0Y40155D01*
X0Y40255D01*
X0Y40354D01*
X0Y40454D01*
X0Y40554D01*
X0Y40654D01*
X0Y40754D01*
X0Y40854D01*
X0Y40954D01*
X0Y41054D01*
X0Y41154D01*
X0Y41253D01*
X0Y41353D01*
X0Y41453D01*
X0Y41553D01*
X0Y41653D01*
X0Y41753D01*
X0Y41853D01*
X0Y41953D01*
X0Y42053D01*
X0Y42152D01*
X0Y42252D01*
X0Y42352D01*
X0Y42452D01*
X0Y42552D01*
X0Y42652D01*
X0Y42752D01*
X0Y42852D01*
X0Y42952D01*
X0Y43051D01*
X0Y43151D01*
X0Y43251D01*
X0Y43351D01*
X0Y43451D01*
X0Y43551D01*
X0Y43651D01*
X0Y43751D01*
X0Y43851D01*
X0Y43950D01*
X0Y44050D01*
X0Y44150D01*
X0Y44250D01*
X0Y44350D01*
X0Y44450D01*
X0Y44550D01*
X0Y44650D01*
X0Y44750D01*
X0Y44849D01*
X0Y44949D01*
X0Y45049D01*
X0Y45149D01*
X0Y45249D01*
X0Y45349D01*
X0Y45449D01*
X0Y45549D01*
X0Y45649D01*
X0Y45748D01*
X0Y45848D01*
X0Y45948D01*
X0Y46048D01*
X0Y46148D01*
X0Y46248D01*
X0Y46348D01*
X0Y46448D01*
X0Y46548D01*
X0Y46647D01*
X0Y46747D01*
X0Y46847D01*
X0Y46947D01*
X0Y47047D01*
X0Y47147D01*
X0Y47247D01*
X0Y47347D01*
X0Y47447D01*
X0Y47546D01*
X0Y47646D01*
X0Y47746D01*
X0Y47846D01*
X0Y47946D01*
X0Y48046D01*
X0Y48146D01*
X0Y48246D01*
X0Y48346D01*
X0Y48445D01*
X0Y48545D01*
X0Y48645D01*
X0Y48745D01*
X0Y48845D01*
X0Y48945D01*
X0Y49045D01*
X0Y49145D01*
X0Y49244D01*
X0Y49344D01*
X0Y49444D01*
X0Y49544D01*
X0Y49644D01*
X0Y49744D01*
X0Y49844D01*
X0Y49944D01*
X0Y50044D01*
X0Y50143D01*
X0Y50243D01*
X0Y50343D01*
X0Y50443D01*
X0Y50543D01*
X0Y50643D01*
X0Y50743D01*
X0Y50843D01*
X0Y50943D01*
X0Y51043D01*
X0Y51142D01*
X0Y51242D01*
X0Y51342D01*
X0Y51442D01*
X0Y51542D01*
X0Y51642D01*
X0Y51742D01*
X0Y51842D01*
X0Y51942D01*
X0Y52041D01*
X0Y52141D01*
X0Y52241D01*
X0Y52341D01*
X0Y52441D01*
X0Y52541D01*
X0Y52641D01*
X0Y52741D01*
X0Y52841D01*
X0Y52940D01*
X0Y53040D01*
X0Y53140D01*
X0Y53240D01*
X0Y53340D01*
X100Y53340D01*
X200Y53340D01*
X300Y53340D01*
X400Y53340D01*
X500Y53340D01*
X599Y53340D01*
X699Y53340D01*
X799Y53340D01*
X899Y53340D01*
X999Y53340D01*
X1099Y53340D01*
X1199Y53340D01*
X1299Y53340D01*
X1399Y53340D01*
X1499Y53340D01*
X1599Y53340D01*
X1699Y53340D01*
X1798Y53340D01*
X1898Y53340D01*
X1998Y53340D01*
X2098Y53340D01*
X2198Y53340D01*
X2298Y53340D01*
X2398Y53340D01*
X2498Y53340D01*
X2598Y53340D01*
X2698Y53340D01*
X2798Y53340D01*
X2897Y53340D01*
X2997Y53340D01*
X3097Y53340D01*
X3197Y53340D01*
X3297Y53340D01*
X3397Y53340D01*
X3497Y53340D01*
X3597Y53340D01*
X3697Y53340D01*
X3797Y53340D01*
X3897Y53340D01*
X3996Y53340D01*
X4096Y53340D01*
X4196Y53340D01*
X4296Y53340D01*
X4396Y53340D01*
X4496Y53340D01*
X4596Y53340D01*
X4696Y53340D01*
X4796Y53340D01*
X4896Y53340D01*
X4996Y53340D01*
X5096Y53340D01*
X5195Y53340D01*
X5295Y53340D01*
X5395Y53340D01*
X5495Y53340D01*
X5595Y53340D01*
X5695Y53340D01*
X5795Y53340D01*
X5895Y53340D01*
X5995Y53340D01*
X6095Y53340D01*
X6195Y53340D01*
X6294Y53340D01*
X6394Y53340D01*
X6494Y53340D01*
X6594Y53340D01*
X6694Y53340D01*
X6794Y53340D01*
X6894Y53340D01*
X6994Y53340D01*
X7094Y53340D01*
X7194Y53340D01*
X7294Y53340D01*
X7393Y53340D01*
X7493Y53340D01*
X7593Y53340D01*
X7693Y53340D01*
X7793Y53340D01*
X7893Y53340D01*
X7993Y53340D01*
X8093Y53340D01*
X8193Y53340D01*
X8293Y53340D01*
X8393Y53340D01*
X8493Y53340D01*
X8592Y53340D01*
X8692Y53340D01*
X8792Y53340D01*
X8892Y53340D01*
X8992Y53340D01*
X9092Y53340D01*
X9192Y53340D01*
X9292Y53340D01*
X9392Y53340D01*
X9492Y53340D01*
X9592Y53340D01*
X9691Y53340D01*
X9791Y53340D01*
X9891Y53340D01*
X9991Y53340D01*
X10091Y53340D01*
X10191Y53340D01*
X10291Y53340D01*
X10391Y53340D01*
X10491Y53340D01*
X10591Y53340D01*
X10691Y53340D01*
X10791Y53340D01*
X10890Y53340D01*
X10990Y53340D01*
X11090Y53340D01*
X11190Y53340D01*
X11290Y53340D01*
X11390Y53340D01*
X11490Y53340D01*
X11590Y53340D01*
X11690Y53340D01*
X11790Y53340D01*
X11890Y53340D01*
X11989Y53340D01*
X12089Y53340D01*
X12189Y53340D01*
X12289Y53340D01*
X12389Y53340D01*
X12489Y53340D01*
X12589Y53340D01*
X12689Y53340D01*
X12789Y53340D01*
X12889Y53340D01*
X12989Y53340D01*
X13088Y53340D01*
X13188Y53340D01*
X13288Y53340D01*
X13388Y53340D01*
X13488Y53340D01*
X13588Y53340D01*
X13688Y53340D01*
X13788Y53340D01*
X13888Y53340D01*
X13988Y53340D01*
X14088Y53340D01*
X14188Y53340D01*
X14287Y53340D01*
X14387Y53340D01*
X14487Y53340D01*
X14587Y53340D01*
X14687Y53340D01*
X14787Y53340D01*
X14887Y53340D01*
X14987Y53340D01*
X15087Y53340D01*
X15187Y53340D01*
X15287Y53340D01*
X15386Y53340D01*
X15486Y53340D01*
X15586Y53340D01*
X15686Y53340D01*
X15786Y53340D01*
X15886Y53340D01*
X15986Y53340D01*
X16086Y53340D01*
X16186Y53340D01*
X16286Y53340D01*
X16386Y53340D01*
X16485Y53340D01*
X16585Y53340D01*
X16685Y53340D01*
X16785Y53340D01*
X16885Y53340D01*
X16985Y53340D01*
X17085Y53340D01*
X17185Y53340D01*
X17285Y53340D01*
X17385Y53340D01*
X17485Y53340D01*
X17585Y53340D01*
X17684Y53340D01*
X17784Y53340D01*
X17884Y53340D01*
X17984Y53340D01*
X18084Y53340D01*
X18184Y53340D01*
X18284Y53340D01*
X18384Y53340D01*
X18484Y53340D01*
X18584Y53340D01*
X18684Y53340D01*
X18783Y53340D01*
X18883Y53340D01*
X18983Y53340D01*
X19083Y53340D01*
X19183Y53340D01*
X19283Y53340D01*
X19383Y53340D01*
X19483Y53340D01*
X19583Y53340D01*
X19683Y53340D01*
X19783Y53340D01*
X19883Y53340D01*
X19982Y53340D01*
X20082Y53340D01*
X20182Y53340D01*
X20282Y53340D01*
X20382Y53340D01*
X20482Y53340D01*
X20582Y53340D01*
X20682Y53340D01*
X20782Y53340D01*
X20882Y53340D01*
X20982Y53340D01*
X21081Y53340D01*
X21181Y53340D01*
X21281Y53340D01*
X21381Y53340D01*
X21481Y53340D01*
X21581Y53340D01*
X21681Y53340D01*
X21781Y53340D01*
X21881Y53340D01*
X21981Y53340D01*
X22081Y53340D01*
X22180Y53340D01*
X22280Y53340D01*
X22380Y53340D01*
X22480Y53340D01*
X22580Y53340D01*
X22680Y53340D01*
X22780Y53340D01*
X22880Y53340D01*
X22980Y53340D01*
X23080Y53340D01*
X23180Y53340D01*
X23280Y53340D01*
X23379Y53340D01*
X23479Y53340D01*
X23579Y53340D01*
X23679Y53340D01*
X23779Y53340D01*
X23879Y53340D01*
X23979Y53340D01*
X24079Y53340D01*
X24179Y53340D01*
X24279Y53340D01*
X24379Y53340D01*
X24478Y53340D01*
X24578Y53340D01*
X24678Y53340D01*
X24778Y53340D01*
X24878Y53340D01*
X24978Y53340D01*
X25078Y53340D01*
X25178Y53340D01*
X25278Y53340D01*
X25378Y53340D01*
X25478Y53340D01*
X25578Y53340D01*
X25677Y53340D01*
X25777Y53340D01*
X25877Y53340D01*
X25977Y53340D01*
X26077Y53340D01*
X26177Y53340D01*
X26277Y53340D01*
X26377Y53340D01*
X26477Y53340D01*
X26577Y53340D01*
X26677Y53340D01*
X26776Y53340D01*
X26876Y53340D01*
X26976Y53340D01*
X27076Y53340D01*
X27176Y53340D01*
X27276Y53340D01*
X27376Y53340D01*
X27476Y53340D01*
X27576Y53340D01*
X27676Y53340D01*
X27776Y53340D01*
X27875Y53340D01*
X27975Y53340D01*
X28075Y53340D01*
X28175Y53340D01*
X28275Y53340D01*
X28375Y53340D01*
X28475Y53340D01*
X28575Y53340D01*
X28675Y53340D01*
X28775Y53340D01*
X28875Y53340D01*
X28975Y53340D01*
X29074Y53340D01*
X29174Y53340D01*
X29274Y53340D01*
X29374Y53340D01*
X29474Y53340D01*
X29574Y53340D01*
X29674Y53340D01*
X29774Y53340D01*
X29874Y53340D01*
X29974Y53340D01*
X30074Y53340D01*
X30173Y53340D01*
X30273Y53340D01*
X30373Y53340D01*
X30473Y53340D01*
X30573Y53340D01*
X30673Y53340D01*
X30773Y53340D01*
X30873Y53340D01*
X30973Y53340D01*
X31073Y53340D01*
X31173Y53340D01*
X31273Y53340D01*
X31372Y53340D01*
X31472Y53340D01*
X31572Y53340D01*
X31672Y53340D01*
X31772Y53340D01*
X31872Y53340D01*
X31972Y53340D01*
X32072Y53340D01*
X32172Y53340D01*
X32272Y53340D01*
X32372Y53340D01*
X32471Y53340D01*
X32571Y53340D01*
X32671Y53340D01*
X32771Y53340D01*
X32871Y53340D01*
X32971Y53340D01*
X33071Y53340D01*
X33171Y53340D01*
X33271Y53340D01*
X33371Y53340D01*
X33471Y53340D01*
X33571Y53340D01*
X33670Y53340D01*
X33770Y53340D01*
X33870Y53340D01*
X33970Y53340D01*
X34070Y53340D01*
X34170Y53340D01*
X34270Y53340D01*
X34370Y53340D01*
X34470Y53340D01*
X34570Y53340D01*
X34670Y53340D01*
X34769Y53340D01*
X34869Y53340D01*
X34969Y53340D01*
X35069Y53340D01*
X35169Y53340D01*
X35269Y53340D01*
X35369Y53340D01*
X35469Y53340D01*
X35569Y53340D01*
X35669Y53340D01*
X35769Y53340D01*
X35868Y53340D01*
X35968Y53340D01*
X36068Y53340D01*
X36168Y53340D01*
X36268Y53340D01*
X36368Y53340D01*
X36468Y53340D01*
X36568Y53340D01*
X36668Y53340D01*
X36768Y53340D01*
X36868Y53340D01*
X36968Y53340D01*
X37067Y53340D01*
X37167Y53340D01*
X37267Y53340D01*
X37367Y53340D01*
X37467Y53340D01*
X37567Y53340D01*
X37667Y53340D01*
X37767Y53340D01*
X37867Y53340D01*
X37967Y53340D01*
X38067Y53340D01*
X38166Y53340D01*
X38266Y53340D01*
X38366Y53340D01*
X38466Y53340D01*
X38566Y53340D01*
X38666Y53340D01*
X38766Y53340D01*
X38866Y53340D01*
X38966Y53340D01*
X39066Y53340D01*
X39166Y53340D01*
X39265Y53340D01*
X39365Y53340D01*
X39465Y53340D01*
X39565Y53340D01*
X39665Y53340D01*
X39765Y53340D01*
X39865Y53340D01*
X39965Y53340D01*
X40065Y53340D01*
X40165Y53340D01*
X40265Y53340D01*
X40365Y53340D01*
X40464Y53340D01*
X40564Y53340D01*
X40664Y53340D01*
X40764Y53340D01*
X40864Y53340D01*
X40964Y53340D01*
X41064Y53340D01*
X41164Y53340D01*
X41264Y53340D01*
X41364Y53340D01*
X41464Y53340D01*
X41563Y53340D01*
X41663Y53340D01*
X41763Y53340D01*
X41863Y53340D01*
X41963Y53340D01*
X42063Y53340D01*
X42163Y53340D01*
X42263Y53340D01*
X42363Y53340D01*
X42463Y53340D01*
X42563Y53340D01*
X42663Y53340D01*
X42762Y53340D01*
X42862Y53340D01*
X42962Y53340D01*
X43062Y53340D01*
X43162Y53340D01*
X43262Y53340D01*
X43362Y53340D01*
X43462Y53340D01*
X43562Y53340D01*
X43662Y53340D01*
X43762Y53340D01*
X43861Y53340D01*
X43961Y53340D01*
X44061Y53340D01*
X44161Y53340D01*
X44261Y53340D01*
X44361Y53340D01*
X44461Y53340D01*
X44561Y53340D01*
X44661Y53340D01*
X44761Y53340D01*
X44861Y53340D01*
X44961Y53340D01*
X45060Y53340D01*
X45160Y53340D01*
X45260Y53340D01*
X45360Y53340D01*
X45460Y53340D01*
X45560Y53340D01*
X45660Y53340D01*
X45760Y53340D01*
X45860Y53340D01*
X45960Y53340D01*
X46060Y53340D01*
X46159Y53340D01*
X46259Y53340D01*
X46359Y53340D01*
X46459Y53340D01*
X46559Y53340D01*
X46659Y53340D01*
X46759Y53340D01*
X46859Y53340D01*
X46959Y53340D01*
X47059Y53340D01*
X47159Y53340D01*
X47259Y53340D01*
X47358Y53340D01*
X47458Y53340D01*
X47558Y53340D01*
X47658Y53340D01*
X47758Y53340D01*
X47858Y53340D01*
X47958Y53340D01*
X48058Y53340D01*
X48158Y53340D01*
X48258Y53340D01*
X48358Y53340D01*
X48457Y53340D01*
X48557Y53340D01*
X48657Y53340D01*
X48757Y53340D01*
X48857Y53340D01*
X48957Y53340D01*
X49057Y53340D01*
X49157Y53340D01*
X49257Y53340D01*
X49357Y53340D01*
X49457Y53340D01*
X49557Y53340D01*
X49656Y53340D01*
X49756Y53340D01*
X49856Y53340D01*
X49956Y53340D01*
X50056Y53340D01*
X50156Y53340D01*
X50256Y53340D01*
X50356Y53340D01*
X50456Y53340D01*
X50556Y53340D01*
X50656Y53340D01*
X50755Y53340D01*
X50855Y53340D01*
X50955Y53340D01*
X51055Y53340D01*
X51155Y53340D01*
X51255Y53340D01*
X51355Y53340D01*
X51455Y53340D01*
X51555Y53340D01*
X51655Y53340D01*
X51755Y53340D01*
X51855Y53340D01*
X51954Y53340D01*
X52054Y53340D01*
X52154Y53340D01*
X52254Y53340D01*
X52354Y53340D01*
X52454Y53340D01*
X52554Y53340D01*
X52654Y53340D01*
X52754Y53340D01*
X52854Y53340D01*
X52954Y53340D01*
X53053Y53340D01*
X53153Y53340D01*
X53253Y53340D01*
X53353Y53340D01*
X53453Y53340D01*
X53553Y53340D01*
X53653Y53340D01*
X53753Y53340D01*
X53853Y53340D01*
X53953Y53340D01*
X54053Y53340D01*
X54153Y53340D01*
X54252Y53340D01*
X54352Y53340D01*
X54452Y53340D01*
X54552Y53340D01*
X54652Y53340D01*
X54752Y53340D01*
X54852Y53340D01*
X54952Y53340D01*
X55052Y53340D01*
X55152Y53340D01*
X55252Y53340D01*
X55351Y53340D01*
X55451Y53340D01*
X55551Y53340D01*
X55651Y53340D01*
X55751Y53340D01*
X55851Y53340D01*
X55951Y53340D01*
X56051Y53340D01*
X56151Y53340D01*
X56251Y53340D01*
X56351Y53340D01*
X56451Y53340D01*
X56550Y53340D01*
X56650Y53340D01*
X56750Y53340D01*
X56850Y53340D01*
X56950Y53340D01*
X57050Y53340D01*
X57150Y53340D01*
X57150Y53240D01*
X57150Y53140D01*
X57150Y53040D01*
X57150Y52940D01*
X57150Y52841D01*
X57150Y52741D01*
X57150Y52641D01*
X57150Y52541D01*
X57150Y52441D01*
X57150Y52341D01*
X57150Y52241D01*
X57150Y52141D01*
X57150Y52041D01*
X57150Y51942D01*
X57150Y51842D01*
X57150Y51742D01*
X57150Y51642D01*
X57150Y51542D01*
X57150Y51442D01*
X57150Y51342D01*
X57150Y51242D01*
X57150Y51142D01*
X57150Y51043D01*
X57150Y50943D01*
X57150Y50843D01*
X57150Y50743D01*
X57150Y50643D01*
X57150Y50543D01*
X57150Y50443D01*
X57150Y50343D01*
X57150Y50243D01*
X57150Y50144D01*
X57150Y50044D01*
X57150Y49944D01*
X57150Y49844D01*
X57150Y49744D01*
X57150Y49644D01*
X57150Y49544D01*
X57150Y49444D01*
X57150Y49345D01*
X57150Y49245D01*
X57150Y49145D01*
X57150Y49045D01*
X57150Y48945D01*
X57150Y48845D01*
X57150Y48745D01*
X57150Y48645D01*
X57150Y48545D01*
X57150Y48446D01*
X57150Y48346D01*
X57150Y48246D01*
X57150Y48146D01*
X57150Y48046D01*
X57150Y47946D01*
X57150Y47846D01*
X57150Y47746D01*
X57150Y47646D01*
X57150Y47547D01*
X57150Y47447D01*
X57150Y47347D01*
X57150Y47247D01*
X57150Y47147D01*
X57150Y47047D01*
X57150Y46947D01*
X57150Y46847D01*
X57150Y46747D01*
X57150Y46648D01*
X57150Y46548D01*
X57150Y46448D01*
X57150Y46348D01*
X57150Y46248D01*
X57150Y46148D01*
X57150Y46048D01*
X57150Y45948D01*
X57150Y45848D01*
X57150Y45749D01*
X57150Y45649D01*
X57150Y45549D01*
X57150Y45449D01*
X57150Y45349D01*
X57150Y45249D01*
X57150Y45149D01*
X57150Y45049D01*
X57150Y44949D01*
X57150Y44850D01*
X57150Y44750D01*
X57150Y44650D01*
X57150Y44550D01*
X57150Y44450D01*
X57150Y44350D01*
X57150Y44250D01*
X57150Y44150D01*
X57150Y44050D01*
X57150Y43951D01*
X57150Y43851D01*
X57150Y43751D01*
X57150Y43651D01*
X57150Y43551D01*
X57150Y43451D01*
X57150Y43351D01*
X57150Y43251D01*
X57150Y43152D01*
X57150Y43052D01*
X57150Y42952D01*
X57150Y42852D01*
X57150Y42752D01*
X57150Y42652D01*
X57150Y42552D01*
X57150Y42452D01*
X57150Y42352D01*
X57150Y42253D01*
X57150Y42153D01*
X57150Y42053D01*
X57150Y41953D01*
X57150Y41853D01*
X57150Y41753D01*
X57150Y41653D01*
X57150Y41553D01*
X57150Y41453D01*
X57150Y41354D01*
X57150Y41254D01*
X57150Y41154D01*
X57150Y41054D01*
X57150Y40954D01*
X57150Y40854D01*
X57150Y40754D01*
X57150Y40654D01*
X57150Y40554D01*
X57150Y40455D01*
X57150Y40355D01*
X57150Y40255D01*
X57150Y40155D01*
X57150Y40055D01*
X57150Y39955D01*
X57150Y39855D01*
X57150Y39755D01*
X57150Y39655D01*
X57150Y39556D01*
X57150Y39456D01*
X57150Y39356D01*
X57150Y39256D01*
X57150Y39156D01*
X57150Y39056D01*
X57150Y38956D01*
X57150Y38856D01*
X57150Y38756D01*
X57150Y38657D01*
X57150Y38557D01*
X57150Y38457D01*
X57150Y38357D01*
X57150Y38257D01*
X57150Y38157D01*
X57150Y38057D01*
X57150Y37957D01*
X57150Y37857D01*
X57150Y37758D01*
X57150Y37658D01*
X57150Y37558D01*
X57150Y37458D01*
X57150Y37358D01*
X57150Y37258D01*
X57150Y37158D01*
X57150Y37058D01*
X57150Y36959D01*
X57150Y36859D01*
X57150Y36759D01*
X57150Y36659D01*
X57150Y36559D01*
X57150Y36459D01*
X57150Y36359D01*
X57150Y36259D01*
X57150Y36159D01*
X57150Y36060D01*
X57150Y35960D01*
X57150Y35860D01*
X57150Y35760D01*
X57150Y35660D01*
X57150Y35560D01*
X57150Y35460D01*
X57150Y35360D01*
X57150Y35260D01*
X57150Y35161D01*
X57150Y35061D01*
X57150Y34961D01*
X57150Y34861D01*
X57150Y34761D01*
X57150Y34661D01*
X57150Y34561D01*
X57150Y34461D01*
X57150Y34361D01*
X57150Y34262D01*
X57150Y34162D01*
X57150Y34062D01*
X57150Y33962D01*
X57150Y33862D01*
X57150Y33762D01*
X57150Y33662D01*
X57150Y33562D01*
X57150Y33462D01*
X57150Y33363D01*
X57150Y33263D01*
X57150Y33163D01*
X57150Y33063D01*
X57150Y32963D01*
X57150Y32863D01*
X57150Y32763D01*
X57150Y32663D01*
X57150Y32563D01*
X57150Y32464D01*
X57150Y32364D01*
X57150Y32264D01*
X57150Y32164D01*
X57150Y32064D01*
X57150Y31964D01*
X57150Y31864D01*
X57150Y31764D01*
X57150Y31664D01*
X57150Y31565D01*
X57150Y31465D01*
X57150Y31365D01*
X57150Y31265D01*
X57150Y31165D01*
X57150Y31065D01*
X57150Y30965D01*
X57150Y30865D01*
X57150Y30765D01*
X57150Y30666D01*
X57150Y30566D01*
X57150Y30466D01*
X57150Y30366D01*
X57150Y30266D01*
X57150Y30166D01*
X57150Y30066D01*
X57150Y29966D01*
X57150Y29867D01*
X57150Y29767D01*
X57150Y29667D01*
X57150Y29567D01*
X57150Y29467D01*
X57150Y29367D01*
X57150Y29267D01*
X57150Y29167D01*
X57150Y29067D01*
X57150Y28968D01*
X57150Y28868D01*
X57150Y28768D01*
X57150Y28668D01*
X57150Y28568D01*
X57150Y28468D01*
X57150Y28368D01*
X57150Y28268D01*
X57150Y28168D01*
X57150Y28069D01*
X57150Y27969D01*
X57150Y27869D01*
X57150Y27769D01*
X57150Y27669D01*
X57150Y27569D01*
X57150Y27469D01*
X57150Y27369D01*
X57150Y27269D01*
X57150Y27170D01*
X57150Y27070D01*
X57150Y26970D01*
X57150Y26870D01*
X57150Y26770D01*
X57150Y26670D01*
X57150Y26570D01*
X57150Y26470D01*
X57150Y26370D01*
X57150Y26271D01*
X57150Y26171D01*
X57150Y26071D01*
X57150Y25971D01*
X57150Y25871D01*
X57150Y25771D01*
X57150Y25671D01*
X57150Y25571D01*
X57150Y25471D01*
X57150Y25372D01*
X57150Y25272D01*
X57150Y25172D01*
X57150Y25072D01*
X57150Y24972D01*
X57150Y24872D01*
X57150Y24772D01*
X57150Y24672D01*
X57150Y24572D01*
X57150Y24473D01*
X57150Y24373D01*
X57150Y24273D01*
X57150Y24173D01*
X57150Y24073D01*
X57150Y23973D01*
X57150Y23873D01*
X57150Y23773D01*
X57150Y23673D01*
X57150Y23574D01*
X57150Y23474D01*
X57150Y23374D01*
X57150Y23274D01*
X57150Y23174D01*
X57150Y23074D01*
X57150Y22974D01*
X57150Y22874D01*
X57150Y22775D01*
X57150Y22675D01*
X57150Y22575D01*
X57150Y22475D01*
X57150Y22375D01*
X57150Y22275D01*
X57150Y22175D01*
X57150Y22075D01*
X57150Y21975D01*
X57150Y21876D01*
X57150Y21776D01*
X57150Y21676D01*
X57150Y21576D01*
X57150Y21476D01*
X57150Y21376D01*
X57150Y21276D01*
X57150Y21176D01*
X57150Y21076D01*
X57150Y20977D01*
X57150Y20877D01*
X57150Y20777D01*
X57150Y20677D01*
X57150Y20577D01*
X57150Y20477D01*
X57150Y20377D01*
X57150Y20277D01*
X57150Y20177D01*
X57150Y20078D01*
X57150Y19978D01*
X57150Y19878D01*
X57150Y19778D01*
X57150Y19678D01*
X57150Y19578D01*
X57150Y19478D01*
X57150Y19378D01*
X57150Y19278D01*
X57150Y19179D01*
X57150Y19079D01*
X57150Y18979D01*
X57150Y18879D01*
X57150Y18779D01*
X57150Y18679D01*
X57150Y18579D01*
X57150Y18479D01*
X57150Y18379D01*
X57150Y18280D01*
X57150Y18180D01*
X57150Y18080D01*
X57150Y17980D01*
X57150Y17880D01*
X57150Y17780D01*
X57150Y17680D01*
X57150Y17580D01*
X57150Y17480D01*
X57150Y17381D01*
X57150Y17281D01*
X57150Y17181D01*
X57150Y17081D01*
X57150Y16981D01*
X57150Y16881D01*
X57150Y16781D01*
X57150Y16681D01*
X57150Y16581D01*
X57150Y16482D01*
X57150Y16382D01*
X57150Y16282D01*
X57150Y16182D01*
X57150Y16082D01*
X57150Y15982D01*
X57150Y15882D01*
X57150Y15782D01*
X57150Y15682D01*
X57150Y15583D01*
X57150Y15483D01*
X57150Y15383D01*
X57150Y15283D01*
X57150Y15183D01*
X57150Y15083D01*
X57150Y14983D01*
X57150Y14883D01*
X57150Y14784D01*
X57150Y14684D01*
X57150Y14584D01*
X57150Y14484D01*
X57150Y14384D01*
X57150Y14284D01*
X57150Y14184D01*
X57150Y14084D01*
X57150Y13984D01*
X57150Y13885D01*
X57150Y13785D01*
X57150Y13685D01*
X57150Y13585D01*
X57150Y13485D01*
X57150Y13385D01*
X57150Y13285D01*
X57150Y13185D01*
X57150Y13085D01*
X57150Y12986D01*
X57150Y12886D01*
X57150Y12786D01*
X57150Y12686D01*
X57150Y12586D01*
X57150Y12486D01*
X57150Y12386D01*
X57150Y12286D01*
X57150Y12186D01*
X57150Y12087D01*
X57150Y11987D01*
X57150Y11887D01*
X57150Y11787D01*
X57150Y11687D01*
X57150Y11587D01*
X57150Y11487D01*
X57150Y11387D01*
X57150Y11287D01*
X57150Y11188D01*
X57150Y11088D01*
X57150Y10988D01*
X57150Y10888D01*
X57150Y10788D01*
X57150Y10688D01*
X57150Y10588D01*
X57150Y10488D01*
X57150Y10388D01*
X57150Y10289D01*
X57150Y10189D01*
X57150Y10089D01*
X57150Y9989D01*
X57150Y9889D01*
X57150Y9789D01*
X57150Y9689D01*
X57150Y9589D01*
X57150Y9489D01*
X57150Y9390D01*
X57150Y9290D01*
X57150Y9190D01*
X57150Y9090D01*
X57150Y8990D01*
X57150Y8890D01*
X57150Y8790D01*
X57150Y8690D01*
X57150Y8590D01*
X57150Y8491D01*
X57150Y8391D01*
X57150Y8291D01*
X57150Y8191D01*
X57150Y8091D01*
X57150Y7991D01*
X57150Y7891D01*
X57150Y7791D01*
X57150Y7691D01*
X57150Y7592D01*
X57150Y7492D01*
X57150Y7392D01*
X57150Y7292D01*
X57150Y7192D01*
X57150Y7092D01*
X57150Y6992D01*
X57150Y6892D01*
X57150Y6792D01*
X57150Y6693D01*
X57150Y6593D01*
X57150Y6493D01*
X57150Y6393D01*
X57150Y6293D01*
X57150Y6193D01*
X57150Y6093D01*
X57150Y5993D01*
X57150Y5893D01*
X57150Y5794D01*
X57150Y5694D01*
X57150Y5594D01*
X57150Y5494D01*
X57150Y5394D01*
X57150Y5294D01*
X57150Y5194D01*
X57150Y5094D01*
X57150Y4994D01*
X57150Y4895D01*
X57150Y4795D01*
X57150Y4695D01*
X57150Y4595D01*
X57150Y4495D01*
X57150Y4395D01*
X57150Y4295D01*
X57150Y4195D01*
X57150Y4096D01*
X57150Y3996D01*
X57150Y3896D01*
X57150Y3796D01*
X57150Y3696D01*
X57150Y3596D01*
X57150Y3496D01*
X57150Y3396D01*
X57150Y3296D01*
X57150Y3197D01*
X57150Y3097D01*
X57150Y2997D01*
X57150Y2897D01*
X57150Y2797D01*
X57150Y2697D01*
X57150Y2597D01*
X57150Y2497D01*
X57150Y2397D01*
X57150Y2297D01*
X57150Y2198D01*
X57150Y2098D01*
X57150Y1998D01*
X57150Y1898D01*
X57150Y1798D01*
X57150Y1698D01*
X57150Y1598D01*
X57150Y1498D01*
X57150Y1398D01*
X57150Y1299D01*
X57150Y1199D01*
X57150Y1099D01*
X57150Y999D01*
X57150Y899D01*
X57150Y799D01*
X57150Y699D01*
X57150Y599D01*
X57150Y499D01*
X57150Y400D01*
X57150Y300D01*
X57150Y200D01*
X57150Y100D01*
X57150Y0D01*
X57050Y0D01*
X56950Y0D01*
X56850Y0D01*
X56750Y0D01*
X56650Y0D01*
X56551Y0D01*
X56451Y0D01*
X56351Y0D01*
X56251Y0D01*
X56151Y0D01*
X56051Y0D01*
X55951Y0D01*
X55851Y0D01*
X55751Y0D01*
X55651Y0D01*
X55551Y0D01*
X55451Y0D01*
X55352Y0D01*
X55252Y0D01*
X55152Y0D01*
X55052Y0D01*
X54952Y0D01*
X54852Y0D01*
X54752Y0D01*
X54652Y0D01*
X54552Y0D01*
X54452Y0D01*
X54352Y0D01*
X54253Y0D01*
X54153Y0D01*
X54053Y0D01*
X53953Y0D01*
X53853Y0D01*
X53753Y0D01*
X53653Y0D01*
X53553Y0D01*
X53453Y0D01*
X53353Y0D01*
X53253Y0D01*
X53154Y0D01*
X53054Y0D01*
X52954Y0D01*
X52854Y0D01*
X52754Y0D01*
X52654Y0D01*
X52554Y0D01*
X52454Y0D01*
X52354Y0D01*
X52254Y0D01*
X52154Y0D01*
X52054Y0D01*
X51955Y0D01*
X51855Y0D01*
X51755Y0D01*
X51655Y0D01*
X51555Y0D01*
X51455Y0D01*
X51355Y0D01*
X51255Y0D01*
X51155Y0D01*
X51055Y0D01*
X50955Y0D01*
X50856Y0D01*
X50756Y0D01*
X50656Y0D01*
X50556Y0D01*
X50456Y0D01*
X50356Y0D01*
X50256Y0D01*
X50156Y0D01*
X50056Y0D01*
X49956Y0D01*
X49856Y0D01*
X49757Y0D01*
X49657Y0D01*
X49557Y0D01*
X49457Y0D01*
X49357Y0D01*
X49257Y0D01*
X49157Y0D01*
X49057Y0D01*
X48957Y0D01*
X48857Y0D01*
X48757Y0D01*
X48657Y0D01*
X48558Y0D01*
X48458Y0D01*
X48358Y0D01*
X48258Y0D01*
X48158Y0D01*
X48058Y0D01*
X47958Y0D01*
X47858Y0D01*
X47758Y0D01*
X47658Y0D01*
X47558Y0D01*
X47459Y0D01*
X47359Y0D01*
X47259Y0D01*
X47159Y0D01*
X47059Y0D01*
X46959Y0D01*
X46859Y0D01*
X46759Y0D01*
X46659Y0D01*
X46559Y0D01*
X46459Y0D01*
X46359Y0D01*
X46260Y0D01*
X46160Y0D01*
X46060Y0D01*
X45960Y0D01*
X45860Y0D01*
X45760Y0D01*
X45660Y0D01*
X45560Y0D01*
X45460Y0D01*
X45360Y0D01*
X45260Y0D01*
X45161Y0D01*
X45061Y0D01*
X44961Y0D01*
X44861Y0D01*
X44761Y0D01*
X44661Y0D01*
X44561Y0D01*
X44461Y0D01*
X44361Y0D01*
X44261Y0D01*
X44161Y0D01*
X44062Y0D01*
X43962Y0D01*
X43862Y0D01*
X43762Y0D01*
X43662Y0D01*
X43562Y0D01*
X43462Y0D01*
X43362Y0D01*
X43262Y0D01*
X43162Y0D01*
X43062Y0D01*
X42962Y0D01*
X42863Y0D01*
X42763Y0D01*
X42663Y0D01*
X42563Y0D01*
X42463Y0D01*
X42363Y0D01*
X42263Y0D01*
X42163Y0D01*
X42063Y0D01*
X41963Y0D01*
X41863Y0D01*
X41764Y0D01*
X41664Y0D01*
X41564Y0D01*
X41464Y0D01*
X41364Y0D01*
X41264Y0D01*
X41164Y0D01*
X41064Y0D01*
X40964Y0D01*
X40864Y0D01*
X40764Y0D01*
X40665Y0D01*
X40565Y0D01*
X40465Y0D01*
X40365Y0D01*
X40265Y0D01*
X40165Y0D01*
X40065Y0D01*
X39965Y0D01*
X39865Y0D01*
X39765Y0D01*
X39665Y0D01*
X39565Y0D01*
X39466Y0D01*
X39366Y0D01*
X39266Y0D01*
X39166Y0D01*
X39066Y0D01*
X38966Y0D01*
X38866Y0D01*
X38766Y0D01*
X38666Y0D01*
X38566Y0D01*
X38466Y0D01*
X38367Y0D01*
X38267Y0D01*
X38167Y0D01*
X38067Y0D01*
X37967Y0D01*
X37867Y0D01*
X37767Y0D01*
X37667Y0D01*
X37567Y0D01*
X37467Y0D01*
X37367Y0D01*
X37267Y0D01*
X37168Y0D01*
X37068Y0D01*
X36968Y0D01*
X36868Y0D01*
X36768Y0D01*
X36668Y0D01*
X36568Y0D01*
X36468Y0D01*
X36368Y0D01*
X36268Y0D01*
X36168Y0D01*
X36069Y0D01*
X35969Y0D01*
X35869Y0D01*
X35769Y0D01*
X35669Y0D01*
X35569Y0D01*
X35469Y0D01*
X35369Y0D01*
X35269Y0D01*
X35169Y0D01*
X35069Y0D01*
X34970Y0D01*
X34870Y0D01*
X34770Y0D01*
X34670Y0D01*
X34570Y0D01*
X34470Y0D01*
X34370Y0D01*
X34270Y0D01*
X34170Y0D01*
X34070Y0D01*
X33970Y0D01*
X33870Y0D01*
X33771Y0D01*
X33671Y0D01*
X33571Y0D01*
X33471Y0D01*
X33371Y0D01*
X33271Y0D01*
X33171Y0D01*
X33071Y0D01*
X32971Y0D01*
X32871Y0D01*
X32771Y0D01*
X32672Y0D01*
X32572Y0D01*
X32472Y0D01*
X32372Y0D01*
X32272Y0D01*
X32172Y0D01*
X32072Y0D01*
X31972Y0D01*
X31872Y0D01*
X31772Y0D01*
X31672Y0D01*
X31572Y0D01*
X31473Y0D01*
X31373Y0D01*
X31273Y0D01*
X31173Y0D01*
X31073Y0D01*
X30973Y0D01*
X30873Y0D01*
X30773Y0D01*
X30673Y0D01*
X30573Y0D01*
X30473Y0D01*
X30374Y0D01*
X30274Y0D01*
X30174Y0D01*
X30074Y0D01*
X29974Y0D01*
X29874Y0D01*
X29774Y0D01*
X29674Y0D01*
X29574Y0D01*
X29474Y0D01*
X29374Y0D01*
X29275Y0D01*
X29175Y0D01*
X29075Y0D01*
X28975Y0D01*
X28875Y0D01*
X28775Y0D01*
X28675Y0D01*
X28575Y0D01*
X28475Y0D01*
X28375Y0D01*
X28275Y0D01*
X28175Y0D01*
X28076Y0D01*
X27976Y0D01*
X27876Y0D01*
X27776Y0D01*
X27676Y0D01*
X27576Y0D01*
X27476Y0D01*
X27376Y0D01*
X27276Y0D01*
X27176Y0D01*
X27076Y0D01*
X26977Y0D01*
X26877Y0D01*
X26777Y0D01*
X26677Y0D01*
X26577Y0D01*
X26477Y0D01*
X26377Y0D01*
X26277Y0D01*
X26177Y0D01*
X26077Y0D01*
X25977Y0D01*
X25877Y0D01*
X25778Y0D01*
X25678Y0D01*
X25578Y0D01*
X25478Y0D01*
X25378Y0D01*
X25278Y0D01*
X25178Y0D01*
X25078Y0D01*
X24978Y0D01*
X24878Y0D01*
X24778Y0D01*
X24679Y0D01*
X24579Y0D01*
X24479Y0D01*
X24379Y0D01*
X24279Y0D01*
X24179Y0D01*
X24079Y0D01*
X23979Y0D01*
X23879Y0D01*
X23779Y0D01*
X23679Y0D01*
X23579Y0D01*
X23480Y0D01*
X23380Y0D01*
X23280Y0D01*
X23180Y0D01*
X23080Y0D01*
X22980Y0D01*
X22880Y0D01*
X22780Y0D01*
X22680Y0D01*
X22580Y0D01*
X22480Y0D01*
X22381Y0D01*
X22281Y0D01*
X22181Y0D01*
X22081Y0D01*
X21981Y0D01*
X21881Y0D01*
X21781Y0D01*
X21681Y0D01*
X21581Y0D01*
X21481Y0D01*
X21381Y0D01*
X21282Y0D01*
X21182Y0D01*
X21082Y0D01*
X20982Y0D01*
X20882Y0D01*
X20782Y0D01*
X20682Y0D01*
X20582Y0D01*
X20482Y0D01*
X20382Y0D01*
X20282Y0D01*
X20182Y0D01*
X20083Y0D01*
X19983Y0D01*
X19883Y0D01*
X19783Y0D01*
X19683Y0D01*
X19583Y0D01*
X19483Y0D01*
X19383Y0D01*
X19283Y0D01*
X19183Y0D01*
X19083Y0D01*
X18984Y0D01*
X18884Y0D01*
X18784Y0D01*
X18684Y0D01*
X18584Y0D01*
X18484Y0D01*
X18384Y0D01*
X18284Y0D01*
X18184Y0D01*
X18084Y0D01*
X17984Y0D01*
X17885Y0D01*
X17785Y0D01*
X17685Y0D01*
X17585Y0D01*
X17485Y0D01*
X17385Y0D01*
X17285Y0D01*
X17185Y0D01*
X17085Y0D01*
X16985Y0D01*
X16885Y0D01*
X16785Y0D01*
X16686Y0D01*
X16586Y0D01*
X16486Y0D01*
X16386Y0D01*
X16286Y0D01*
X16186Y0D01*
X16086Y0D01*
X15986Y0D01*
X15886Y0D01*
X15786Y0D01*
X15686Y0D01*
X15587Y0D01*
X15487Y0D01*
X15387Y0D01*
X15287Y0D01*
X15187Y0D01*
X15087Y0D01*
X14987Y0D01*
X14887Y0D01*
X14787Y0D01*
X14687Y0D01*
X14587Y0D01*
X14487Y0D01*
X14388Y0D01*
X14288Y0D01*
X14188Y0D01*
X14088Y0D01*
X13988Y0D01*
X13888Y0D01*
X13788Y0D01*
X13688Y0D01*
X13588Y0D01*
X13488Y0D01*
X13388Y0D01*
X13289Y0D01*
X13189Y0D01*
X13089Y0D01*
X12989Y0D01*
X12889Y0D01*
X12789Y0D01*
X12689Y0D01*
X12589Y0D01*
X12489Y0D01*
X12389Y0D01*
X12289Y0D01*
X12189Y0D01*
X12090Y0D01*
X11990Y0D01*
X11890Y0D01*
X11790Y0D01*
X11690Y0D01*
X11590Y0D01*
X11490Y0D01*
X11390Y0D01*
X11290Y0D01*
X11190Y0D01*
X11090Y0D01*
X10991Y0D01*
X10891Y0D01*
X10791Y0D01*
X10691Y0D01*
X10591Y0D01*
X10491Y0D01*
X10391Y0D01*
X10291Y0D01*
X10191Y0D01*
X10091Y0D01*
X9991Y0D01*
X9891Y0D01*
X9792Y0D01*
X9692Y0D01*
X9592Y0D01*
X9492Y0D01*
X9392Y0D01*
X9292Y0D01*
X9192Y0D01*
X9092Y0D01*
X8992Y0D01*
X8892Y0D01*
X8792Y0D01*
X8693Y0D01*
X8593Y0D01*
X8493Y0D01*
X8393Y0D01*
X8293Y0D01*
X8193Y0D01*
X8093Y0D01*
X7993Y0D01*
X7893Y0D01*
X7793Y0D01*
X7693Y0D01*
X7593Y0D01*
X7494Y0D01*
X7394Y0D01*
X7294Y0D01*
X7194Y0D01*
X7094Y0D01*
X6994Y0D01*
X6894Y0D01*
X6794Y0D01*
X6694Y0D01*
X6594Y0D01*
X6494Y0D01*
X6395Y0D01*
X6295Y0D01*
X6195Y0D01*
X6095Y0D01*
X5995Y0D01*
X5895Y0D01*
X5795Y0D01*
X5695Y0D01*
X5595Y0D01*
X5495Y0D01*
X5395Y0D01*
X5295Y0D01*
X5196Y0D01*
X5096Y0D01*
X4996Y0D01*
X4896Y0D01*
X4796Y0D01*
X4696Y0D01*
X4596Y0D01*
X4496Y0D01*
X4396Y0D01*
X4296Y0D01*
X4196Y0D01*
X4097Y0D01*
X3997Y0D01*
X3897Y0D01*
X3797Y0D01*
X3697Y0D01*
X3597Y0D01*
X3497Y0D01*
X3397Y0D01*
X3297Y0D01*
X3197Y0D01*
X3097Y0D01*
X2997Y0D01*
X2898Y0D01*
X2798Y0D01*
X2698Y0D01*
X2598Y0D01*
X2498Y0D01*
X2398Y0D01*
X2298Y0D01*
X2198Y0D01*
X2098Y0D01*
X1998Y0D01*
X1898Y0D01*
X1799Y0D01*
X1699Y0D01*
X1599Y0D01*
X1499Y0D01*
X1399Y0D01*
X1299Y0D01*
X1199Y0D01*
X1099Y0D01*
X999Y0D01*
X899Y0D01*
X799Y0D01*
X699Y0D01*
X600Y0D01*
X500Y0D01*
X400Y0D01*
X300Y0D01*
X200Y0D01*
X100Y0D01*
X0Y0D01*
X0Y0D01*
D11*
X9514Y48007D02*
X9514Y48673D01*
X9903Y48673D01*
X10014Y48562D01*
X10014Y48118D01*
X9903Y48007D01*
X9514Y48007D01*
D11*
X10375Y48007D02*
X10375Y48673D01*
X10319Y48673D01*
X10236Y48562D01*
D11*
X10236Y48007D02*
X10486Y48007D01*
D12*
X12540Y46435D02*
X12540Y50245D01*
D12*
X12540Y52150D02*
X13810Y50880D01*
D12*
X12540Y52150D02*
X6190Y52150D01*
D12*
X6190Y44530D02*
X6190Y52150D01*
D12*
X13810Y50880D02*
X13810Y44530D01*
D12*
X6190Y44530D02*
X7460Y44530D01*
D12*
X7460Y45038D02*
X7460Y44530D01*
D12*
X13810Y44530D02*
X12540Y44530D01*
D12*
X12540Y45038D02*
X12540Y44530D01*
D12*
X12540Y45038D02*
X7460Y45038D01*
D13*
X7460Y48340D02*
X7462Y48240D01*
X7467Y48141D01*
X7477Y48041D01*
X7490Y47942D01*
X7507Y47844D01*
X7528Y47746D01*
X7553Y47650D01*
X7581Y47554D01*
X7614Y47460D01*
X7650Y47367D01*
X7690Y47275D01*
X7733Y47185D01*
X7780Y47097D01*
X7831Y47011D01*
X7885Y46928D01*
X7942Y46846D01*
X8003Y46766D01*
X8066Y46690D01*
X8133Y46615D01*
X8202Y46543D01*
X8274Y46475D01*
X8349Y46409D01*
X8427Y46345D01*
X8506Y46285D01*
X8588Y46228D01*
X8672Y46175D01*
X8758Y46124D01*
X8846Y46077D01*
X8936Y46033D01*
X9027Y45993D01*
X9120Y45957D01*
X9214Y45923D01*
X9310Y45894D01*
X9406Y45869D01*
X9504Y45847D01*
X9602Y45829D01*
X9700Y45815D01*
X9800Y45805D01*
X9899Y45798D01*
X9999Y45796D01*
X10099Y45798D01*
X10199Y45804D01*
X10298Y45814D01*
X10397Y45827D01*
X10495Y45845D01*
X10592Y45867D01*
X10689Y45893D01*
X10784Y45922D01*
X10878Y45955D01*
X10971Y45992D01*
X11062Y46032D01*
X11152Y46076D01*
X11240Y46123D01*
X11326Y46174D01*
X11410Y46227D01*
X11492Y46284D01*
X11572Y46345D01*
X11649Y46408D01*
X11723Y46474D01*
X11795Y46543D01*
X11865Y46615D01*
X11931Y46690D01*
X11994Y46767D01*
X12054Y46846D01*
X12112Y46928D01*
X12165Y47012D01*
X12216Y47098D01*
X12263Y47186D01*
X12306Y47276D01*
X12346Y47367D01*
X12383Y47460D01*
X12416Y47555D01*
X12445Y47650D01*
X12470Y47747D01*
X12491Y47844D01*
X12509Y47942D01*
X12522Y48041D01*
X12532Y48141D01*
X12538Y48240D01*
X12540Y48340D01*
X12538Y48440D01*
X12533Y48539D01*
X12523Y48639D01*
X12510Y48738D01*
X12493Y48836D01*
X12472Y48934D01*
X12447Y49030D01*
X12419Y49126D01*
X12386Y49220D01*
X12350Y49313D01*
X12310Y49405D01*
X12267Y49495D01*
X12220Y49583D01*
X12169Y49669D01*
X12115Y49752D01*
X12058Y49834D01*
X11997Y49914D01*
X11934Y49990D01*
X11867Y50065D01*
X11798Y50137D01*
X11726Y50205D01*
X11651Y50271D01*
X11573Y50335D01*
X11494Y50395D01*
X11412Y50452D01*
X11328Y50505D01*
X11242Y50556D01*
X11154Y50603D01*
X11064Y50647D01*
X10973Y50687D01*
X10880Y50723D01*
X10786Y50757D01*
X10690Y50786D01*
X10594Y50811D01*
X10496Y50833D01*
X10398Y50851D01*
X10300Y50865D01*
X10200Y50875D01*
X10101Y50882D01*
X10001Y50884D01*
X9901Y50882D01*
X9801Y50876D01*
X9702Y50866D01*
X9603Y50853D01*
X9505Y50835D01*
X9408Y50813D01*
X9311Y50787D01*
X9216Y50758D01*
X9122Y50725D01*
X9029Y50688D01*
X8938Y50648D01*
X8848Y50604D01*
X8760Y50557D01*
X8674Y50506D01*
X8590Y50453D01*
X8508Y50396D01*
X8428Y50335D01*
X8351Y50272D01*
X8277Y50206D01*
X8205Y50137D01*
X8135Y50065D01*
X8069Y49990D01*
X8006Y49913D01*
X7946Y49834D01*
X7888Y49752D01*
X7835Y49668D01*
X7784Y49582D01*
X7737Y49494D01*
X7694Y49404D01*
X7654Y49313D01*
X7617Y49220D01*
X7584Y49125D01*
X7555Y49030D01*
X7530Y48933D01*
X7509Y48836D01*
X7491Y48738D01*
X7478Y48639D01*
X7468Y48539D01*
X7462Y48440D01*
X7460Y48340D01*
X7460Y48340D01*
G36*
X7460Y48340D02*
X7462Y48240D01*
X7467Y48141D01*
X7477Y48041D01*
X7490Y47942D01*
X7507Y47844D01*
X7528Y47746D01*
X7553Y47650D01*
X7581Y47554D01*
X7614Y47460D01*
X7650Y47367D01*
X7690Y47275D01*
X7733Y47185D01*
X7780Y47097D01*
X7831Y47011D01*
X7885Y46928D01*
X7942Y46846D01*
X8003Y46766D01*
X8066Y46690D01*
X8133Y46615D01*
X8202Y46543D01*
X8274Y46475D01*
X8349Y46409D01*
X8427Y46345D01*
X8506Y46285D01*
X8588Y46228D01*
X8672Y46175D01*
X8758Y46124D01*
X8846Y46077D01*
X8936Y46033D01*
X9027Y45993D01*
X9120Y45957D01*
X9214Y45923D01*
X9310Y45894D01*
X9406Y45869D01*
X9504Y45847D01*
X9602Y45829D01*
X9700Y45815D01*
X9800Y45805D01*
X9899Y45798D01*
X9999Y45796D01*
X10099Y45798D01*
X10199Y45804D01*
X10298Y45814D01*
X10397Y45827D01*
X10495Y45845D01*
X10592Y45867D01*
X10689Y45893D01*
X10784Y45922D01*
X10878Y45955D01*
X10971Y45992D01*
X11062Y46032D01*
X11152Y46076D01*
X11240Y46123D01*
X11326Y46174D01*
X11410Y46227D01*
X11492Y46284D01*
X11572Y46345D01*
X11649Y46408D01*
X11723Y46474D01*
X11795Y46543D01*
X11865Y46615D01*
X11931Y46690D01*
X11994Y46767D01*
X12054Y46846D01*
X12112Y46928D01*
X12165Y47012D01*
X12216Y47098D01*
X12263Y47186D01*
X12306Y47276D01*
X12346Y47367D01*
X12383Y47460D01*
X12416Y47555D01*
X12445Y47650D01*
X12470Y47747D01*
X12491Y47844D01*
X12509Y47942D01*
X12522Y48041D01*
X12532Y48141D01*
X12538Y48240D01*
X12540Y48340D01*
X12538Y48440D01*
X12533Y48539D01*
X12523Y48639D01*
X12510Y48738D01*
X12493Y48836D01*
X12472Y48934D01*
X12447Y49030D01*
X12419Y49126D01*
X12386Y49220D01*
X12350Y49313D01*
X12310Y49405D01*
X12267Y49495D01*
X12220Y49583D01*
X12169Y49669D01*
X12115Y49752D01*
X12058Y49834D01*
X11997Y49914D01*
X11934Y49990D01*
X11867Y50065D01*
X11798Y50137D01*
X11726Y50205D01*
X11651Y50271D01*
X11573Y50335D01*
X11494Y50395D01*
X11412Y50452D01*
X11328Y50505D01*
X11242Y50556D01*
X11154Y50603D01*
X11064Y50647D01*
X10973Y50687D01*
X10880Y50723D01*
X10786Y50757D01*
X10690Y50786D01*
X10594Y50811D01*
X10496Y50833D01*
X10398Y50851D01*
X10300Y50865D01*
X10200Y50875D01*
X10101Y50882D01*
X10001Y50884D01*
X9901Y50882D01*
X9801Y50876D01*
X9702Y50866D01*
X9603Y50853D01*
X9505Y50835D01*
X9408Y50813D01*
X9311Y50787D01*
X9216Y50758D01*
X9122Y50725D01*
X9029Y50688D01*
X8938Y50648D01*
X8848Y50604D01*
X8760Y50557D01*
X8674Y50506D01*
X8590Y50453D01*
X8508Y50396D01*
X8428Y50335D01*
X8351Y50272D01*
X8277Y50206D01*
X8205Y50137D01*
X8135Y50065D01*
X8069Y49990D01*
X8006Y49913D01*
X7946Y49834D01*
X7888Y49752D01*
X7835Y49668D01*
X7784Y49582D01*
X7737Y49494D01*
X7694Y49404D01*
X7654Y49313D01*
X7617Y49220D01*
X7584Y49125D01*
X7555Y49030D01*
X7530Y48933D01*
X7509Y48836D01*
X7491Y48738D01*
X7478Y48639D01*
X7468Y48539D01*
X7462Y48440D01*
X7460Y48340D01*
X7460Y48340D01*
G37*
D13*
X6825Y48340D02*
X6826Y48240D01*
X6831Y48141D01*
X6838Y48041D01*
X6849Y47942D01*
X6862Y47843D01*
X6879Y47744D01*
X6899Y47647D01*
X6922Y47550D01*
X6948Y47453D01*
X6977Y47358D01*
X7009Y47263D01*
X7044Y47170D01*
X7082Y47077D01*
X7123Y46986D01*
X7166Y46897D01*
X7213Y46809D01*
X7263Y46722D01*
X7315Y46637D01*
X7370Y46554D01*
X7428Y46472D01*
X7488Y46393D01*
X7551Y46315D01*
X7616Y46239D01*
X7683Y46166D01*
X7753Y46094D01*
X7825Y46025D01*
X7899Y45958D01*
X7975Y45894D01*
X8053Y45831D01*
X8133Y45772D01*
X8214Y45714D01*
X8298Y45660D01*
X8383Y45608D01*
X8470Y45558D01*
X8558Y45511D01*
X8647Y45467D01*
X8738Y45426D01*
X8830Y45388D01*
X8924Y45352D01*
X9018Y45319D01*
X9113Y45290D01*
X9209Y45263D01*
X9306Y45239D01*
X9404Y45219D01*
X9502Y45201D01*
X9601Y45187D01*
X9700Y45175D01*
X9799Y45167D01*
X9899Y45162D01*
X9999Y45160D01*
X10099Y45162D01*
X10198Y45166D01*
X10298Y45174D01*
X10397Y45185D01*
X10496Y45199D01*
X10594Y45217D01*
X10692Y45237D01*
X10789Y45261D01*
X10885Y45288D01*
X10980Y45317D01*
X11074Y45350D01*
X11168Y45386D01*
X11260Y45424D01*
X11350Y45466D01*
X11440Y45510D01*
X11528Y45557D01*
X11615Y45606D01*
X11700Y45658D01*
X11783Y45713D01*
X11865Y45770D01*
X11945Y45830D01*
X12023Y45893D01*
X12099Y45957D01*
X12173Y46025D01*
X12244Y46094D01*
X12314Y46166D01*
X12381Y46239D01*
X12446Y46315D01*
X12508Y46393D01*
X12568Y46473D01*
X12625Y46555D01*
X12680Y46638D01*
X12732Y46723D01*
X12782Y46810D01*
X12829Y46898D01*
X12873Y46987D01*
X12914Y47078D01*
X12952Y47171D01*
X12987Y47264D01*
X13020Y47358D01*
X13049Y47454D01*
X13075Y47550D01*
X13099Y47647D01*
X13119Y47745D01*
X13136Y47843D01*
X13150Y47942D01*
X13161Y48041D01*
X13169Y48141D01*
X13173Y48240D01*
X13175Y48340D01*
X13174Y48440D01*
X13169Y48539D01*
X13162Y48639D01*
X13151Y48738D01*
X13138Y48837D01*
X13121Y48936D01*
X13101Y49033D01*
X13078Y49130D01*
X13052Y49227D01*
X13023Y49322D01*
X12991Y49417D01*
X12956Y49510D01*
X12918Y49603D01*
X12877Y49694D01*
X12834Y49783D01*
X12787Y49871D01*
X12737Y49958D01*
X12685Y50043D01*
X12630Y50126D01*
X12572Y50208D01*
X12512Y50287D01*
X12449Y50365D01*
X12384Y50441D01*
X12317Y50514D01*
X12247Y50586D01*
X12175Y50655D01*
X12101Y50722D01*
X12025Y50786D01*
X11947Y50849D01*
X11867Y50908D01*
X11786Y50966D01*
X11702Y51020D01*
X11617Y51072D01*
X11530Y51122D01*
X11442Y51169D01*
X11353Y51213D01*
X11262Y51254D01*
X11170Y51292D01*
X11076Y51328D01*
X10982Y51361D01*
X10887Y51390D01*
X10791Y51417D01*
X10694Y51441D01*
X10596Y51461D01*
X10498Y51479D01*
X10399Y51493D01*
X10300Y51505D01*
X10201Y51513D01*
X10101Y51518D01*
X10001Y51520D01*
X9901Y51518D01*
X9802Y51514D01*
X9702Y51506D01*
X9603Y51495D01*
X9504Y51481D01*
X9406Y51463D01*
X9308Y51443D01*
X9211Y51419D01*
X9115Y51392D01*
X9020Y51363D01*
X8926Y51330D01*
X8832Y51294D01*
X8740Y51256D01*
X8650Y51214D01*
X8560Y51170D01*
X8472Y51123D01*
X8385Y51074D01*
X8300Y51022D01*
X8217Y50967D01*
X8135Y50910D01*
X8055Y50850D01*
X7977Y50787D01*
X7901Y50723D01*
X7827Y50655D01*
X7756Y50586D01*
X7686Y50514D01*
X7619Y50441D01*
X7554Y50365D01*
X7492Y50287D01*
X7432Y50207D01*
X7375Y50125D01*
X7320Y50042D01*
X7268Y49957D01*
X7218Y49870D01*
X7171Y49782D01*
X7127Y49693D01*
X7086Y49602D01*
X7048Y49509D01*
X7013Y49416D01*
X6980Y49322D01*
X6951Y49226D01*
X6925Y49130D01*
X6901Y49033D01*
X6881Y48935D01*
X6864Y48837D01*
X6850Y48738D01*
X6839Y48639D01*
X6831Y48539D01*
X6827Y48440D01*
X6825Y48340D01*
X6825Y48340D01*
G36*
X6825Y48340D02*
X6826Y48240D01*
X6831Y48141D01*
X6838Y48041D01*
X6849Y47942D01*
X6862Y47843D01*
X6879Y47744D01*
X6899Y47647D01*
X6922Y47550D01*
X6948Y47453D01*
X6977Y47358D01*
X7009Y47263D01*
X7044Y47170D01*
X7082Y47077D01*
X7123Y46986D01*
X7166Y46897D01*
X7213Y46809D01*
X7263Y46722D01*
X7315Y46637D01*
X7370Y46554D01*
X7428Y46472D01*
X7488Y46393D01*
X7551Y46315D01*
X7616Y46239D01*
X7683Y46166D01*
X7753Y46094D01*
X7825Y46025D01*
X7899Y45958D01*
X7975Y45894D01*
X8053Y45831D01*
X8133Y45772D01*
X8214Y45714D01*
X8298Y45660D01*
X8383Y45608D01*
X8470Y45558D01*
X8558Y45511D01*
X8647Y45467D01*
X8738Y45426D01*
X8830Y45388D01*
X8924Y45352D01*
X9018Y45319D01*
X9113Y45290D01*
X9209Y45263D01*
X9306Y45239D01*
X9404Y45219D01*
X9502Y45201D01*
X9601Y45187D01*
X9700Y45175D01*
X9799Y45167D01*
X9899Y45162D01*
X9999Y45160D01*
X10099Y45162D01*
X10198Y45166D01*
X10298Y45174D01*
X10397Y45185D01*
X10496Y45199D01*
X10594Y45217D01*
X10692Y45237D01*
X10789Y45261D01*
X10885Y45288D01*
X10980Y45317D01*
X11074Y45350D01*
X11168Y45386D01*
X11260Y45424D01*
X11350Y45466D01*
X11440Y45510D01*
X11528Y45557D01*
X11615Y45606D01*
X11700Y45658D01*
X11783Y45713D01*
X11865Y45770D01*
X11945Y45830D01*
X12023Y45893D01*
X12099Y45957D01*
X12173Y46025D01*
X12244Y46094D01*
X12314Y46166D01*
X12381Y46239D01*
X12446Y46315D01*
X12508Y46393D01*
X12568Y46473D01*
X12625Y46555D01*
X12680Y46638D01*
X12732Y46723D01*
X12782Y46810D01*
X12829Y46898D01*
X12873Y46987D01*
X12914Y47078D01*
X12952Y47171D01*
X12987Y47264D01*
X13020Y47358D01*
X13049Y47454D01*
X13075Y47550D01*
X13099Y47647D01*
X13119Y47745D01*
X13136Y47843D01*
X13150Y47942D01*
X13161Y48041D01*
X13169Y48141D01*
X13173Y48240D01*
X13175Y48340D01*
X13174Y48440D01*
X13169Y48539D01*
X13162Y48639D01*
X13151Y48738D01*
X13138Y48837D01*
X13121Y48936D01*
X13101Y49033D01*
X13078Y49130D01*
X13052Y49227D01*
X13023Y49322D01*
X12991Y49417D01*
X12956Y49510D01*
X12918Y49603D01*
X12877Y49694D01*
X12834Y49783D01*
X12787Y49871D01*
X12737Y49958D01*
X12685Y50043D01*
X12630Y50126D01*
X12572Y50208D01*
X12512Y50287D01*
X12449Y50365D01*
X12384Y50441D01*
X12317Y50514D01*
X12247Y50586D01*
X12175Y50655D01*
X12101Y50722D01*
X12025Y50786D01*
X11947Y50849D01*
X11867Y50908D01*
X11786Y50966D01*
X11702Y51020D01*
X11617Y51072D01*
X11530Y51122D01*
X11442Y51169D01*
X11353Y51213D01*
X11262Y51254D01*
X11170Y51292D01*
X11076Y51328D01*
X10982Y51361D01*
X10887Y51390D01*
X10791Y51417D01*
X10694Y51441D01*
X10596Y51461D01*
X10498Y51479D01*
X10399Y51493D01*
X10300Y51505D01*
X10201Y51513D01*
X10101Y51518D01*
X10001Y51520D01*
X9901Y51518D01*
X9802Y51514D01*
X9702Y51506D01*
X9603Y51495D01*
X9504Y51481D01*
X9406Y51463D01*
X9308Y51443D01*
X9211Y51419D01*
X9115Y51392D01*
X9020Y51363D01*
X8926Y51330D01*
X8832Y51294D01*
X8740Y51256D01*
X8650Y51214D01*
X8560Y51170D01*
X8472Y51123D01*
X8385Y51074D01*
X8300Y51022D01*
X8217Y50967D01*
X8135Y50910D01*
X8055Y50850D01*
X7977Y50787D01*
X7901Y50723D01*
X7827Y50655D01*
X7756Y50586D01*
X7686Y50514D01*
X7619Y50441D01*
X7554Y50365D01*
X7492Y50287D01*
X7432Y50207D01*
X7375Y50125D01*
X7320Y50042D01*
X7268Y49957D01*
X7218Y49870D01*
X7171Y49782D01*
X7127Y49693D01*
X7086Y49602D01*
X7048Y49509D01*
X7013Y49416D01*
X6980Y49322D01*
X6951Y49226D01*
X6925Y49130D01*
X6901Y49033D01*
X6881Y48935D01*
X6864Y48837D01*
X6850Y48738D01*
X6839Y48639D01*
X6831Y48539D01*
X6827Y48440D01*
X6825Y48340D01*
X6825Y48340D01*
G37*
D11*
X14444Y48007D02*
X14444Y48673D01*
X14833Y48673D01*
X14944Y48562D01*
X14944Y48118D01*
X14833Y48007D01*
X14444Y48007D01*
D11*
X15167Y48562D02*
X15167Y48590D01*
X15250Y48673D01*
X15472Y48673D01*
X15556Y48590D01*
X15556Y48396D01*
X15167Y48007D01*
X15556Y48007D01*
D12*
X17540Y46435D02*
X17540Y50245D01*
D12*
X17540Y52150D02*
X18810Y50880D01*
D12*
X17540Y52150D02*
X11190Y52150D01*
D12*
X11190Y44530D02*
X11190Y52150D01*
D12*
X18810Y50880D02*
X18810Y44530D01*
D12*
X11190Y44530D02*
X12460Y44530D01*
D12*
X12460Y45038D02*
X12460Y44530D01*
D12*
X18810Y44530D02*
X17540Y44530D01*
D12*
X17540Y45038D02*
X17540Y44530D01*
D12*
X17540Y45038D02*
X12460Y45038D01*
D13*
X12460Y48340D02*
X12462Y48240D01*
X12467Y48141D01*
X12477Y48041D01*
X12490Y47942D01*
X12507Y47844D01*
X12528Y47746D01*
X12553Y47650D01*
X12581Y47554D01*
X12614Y47460D01*
X12650Y47367D01*
X12690Y47275D01*
X12733Y47185D01*
X12780Y47097D01*
X12831Y47011D01*
X12885Y46928D01*
X12942Y46846D01*
X13003Y46766D01*
X13066Y46690D01*
X13133Y46615D01*
X13202Y46543D01*
X13274Y46475D01*
X13349Y46409D01*
X13427Y46345D01*
X13506Y46285D01*
X13588Y46228D01*
X13672Y46175D01*
X13758Y46124D01*
X13846Y46077D01*
X13936Y46033D01*
X14027Y45993D01*
X14120Y45957D01*
X14214Y45923D01*
X14310Y45894D01*
X14406Y45869D01*
X14504Y45847D01*
X14602Y45829D01*
X14700Y45815D01*
X14800Y45805D01*
X14899Y45798D01*
X14999Y45796D01*
X15099Y45798D01*
X15199Y45804D01*
X15298Y45814D01*
X15397Y45827D01*
X15495Y45845D01*
X15592Y45867D01*
X15689Y45893D01*
X15784Y45922D01*
X15878Y45955D01*
X15971Y45992D01*
X16062Y46032D01*
X16152Y46076D01*
X16240Y46123D01*
X16326Y46174D01*
X16410Y46227D01*
X16492Y46284D01*
X16572Y46345D01*
X16649Y46408D01*
X16723Y46474D01*
X16795Y46543D01*
X16865Y46615D01*
X16931Y46690D01*
X16994Y46767D01*
X17054Y46846D01*
X17112Y46928D01*
X17165Y47012D01*
X17216Y47098D01*
X17263Y47186D01*
X17306Y47276D01*
X17346Y47367D01*
X17383Y47460D01*
X17416Y47555D01*
X17445Y47650D01*
X17470Y47747D01*
X17491Y47844D01*
X17509Y47942D01*
X17522Y48041D01*
X17532Y48141D01*
X17538Y48240D01*
X17540Y48340D01*
X17538Y48440D01*
X17533Y48539D01*
X17523Y48639D01*
X17510Y48738D01*
X17493Y48836D01*
X17472Y48934D01*
X17447Y49030D01*
X17419Y49126D01*
X17386Y49220D01*
X17350Y49313D01*
X17310Y49405D01*
X17267Y49495D01*
X17220Y49583D01*
X17169Y49669D01*
X17115Y49752D01*
X17058Y49834D01*
X16997Y49914D01*
X16934Y49990D01*
X16867Y50065D01*
X16798Y50137D01*
X16726Y50205D01*
X16651Y50271D01*
X16573Y50335D01*
X16494Y50395D01*
X16412Y50452D01*
X16328Y50505D01*
X16242Y50556D01*
X16154Y50603D01*
X16064Y50647D01*
X15973Y50687D01*
X15880Y50723D01*
X15786Y50757D01*
X15690Y50786D01*
X15594Y50811D01*
X15496Y50833D01*
X15398Y50851D01*
X15300Y50865D01*
X15200Y50875D01*
X15101Y50882D01*
X15001Y50884D01*
X14901Y50882D01*
X14801Y50876D01*
X14702Y50866D01*
X14603Y50853D01*
X14505Y50835D01*
X14408Y50813D01*
X14311Y50787D01*
X14216Y50758D01*
X14122Y50725D01*
X14029Y50688D01*
X13938Y50648D01*
X13848Y50604D01*
X13760Y50557D01*
X13674Y50506D01*
X13590Y50453D01*
X13508Y50396D01*
X13428Y50335D01*
X13351Y50272D01*
X13277Y50206D01*
X13205Y50137D01*
X13135Y50065D01*
X13069Y49990D01*
X13006Y49913D01*
X12946Y49834D01*
X12888Y49752D01*
X12835Y49668D01*
X12784Y49582D01*
X12737Y49494D01*
X12694Y49404D01*
X12654Y49313D01*
X12617Y49220D01*
X12584Y49125D01*
X12555Y49030D01*
X12530Y48933D01*
X12509Y48836D01*
X12491Y48738D01*
X12478Y48639D01*
X12468Y48539D01*
X12462Y48440D01*
X12460Y48340D01*
X12460Y48340D01*
G36*
X12460Y48340D02*
X12462Y48240D01*
X12467Y48141D01*
X12477Y48041D01*
X12490Y47942D01*
X12507Y47844D01*
X12528Y47746D01*
X12553Y47650D01*
X12581Y47554D01*
X12614Y47460D01*
X12650Y47367D01*
X12690Y47275D01*
X12733Y47185D01*
X12780Y47097D01*
X12831Y47011D01*
X12885Y46928D01*
X12942Y46846D01*
X13003Y46766D01*
X13066Y46690D01*
X13133Y46615D01*
X13202Y46543D01*
X13274Y46475D01*
X13349Y46409D01*
X13427Y46345D01*
X13506Y46285D01*
X13588Y46228D01*
X13672Y46175D01*
X13758Y46124D01*
X13846Y46077D01*
X13936Y46033D01*
X14027Y45993D01*
X14120Y45957D01*
X14214Y45923D01*
X14310Y45894D01*
X14406Y45869D01*
X14504Y45847D01*
X14602Y45829D01*
X14700Y45815D01*
X14800Y45805D01*
X14899Y45798D01*
X14999Y45796D01*
X15099Y45798D01*
X15199Y45804D01*
X15298Y45814D01*
X15397Y45827D01*
X15495Y45845D01*
X15592Y45867D01*
X15689Y45893D01*
X15784Y45922D01*
X15878Y45955D01*
X15971Y45992D01*
X16062Y46032D01*
X16152Y46076D01*
X16240Y46123D01*
X16326Y46174D01*
X16410Y46227D01*
X16492Y46284D01*
X16572Y46345D01*
X16649Y46408D01*
X16723Y46474D01*
X16795Y46543D01*
X16865Y46615D01*
X16931Y46690D01*
X16994Y46767D01*
X17054Y46846D01*
X17112Y46928D01*
X17165Y47012D01*
X17216Y47098D01*
X17263Y47186D01*
X17306Y47276D01*
X17346Y47367D01*
X17383Y47460D01*
X17416Y47555D01*
X17445Y47650D01*
X17470Y47747D01*
X17491Y47844D01*
X17509Y47942D01*
X17522Y48041D01*
X17532Y48141D01*
X17538Y48240D01*
X17540Y48340D01*
X17538Y48440D01*
X17533Y48539D01*
X17523Y48639D01*
X17510Y48738D01*
X17493Y48836D01*
X17472Y48934D01*
X17447Y49030D01*
X17419Y49126D01*
X17386Y49220D01*
X17350Y49313D01*
X17310Y49405D01*
X17267Y49495D01*
X17220Y49583D01*
X17169Y49669D01*
X17115Y49752D01*
X17058Y49834D01*
X16997Y49914D01*
X16934Y49990D01*
X16867Y50065D01*
X16798Y50137D01*
X16726Y50205D01*
X16651Y50271D01*
X16573Y50335D01*
X16494Y50395D01*
X16412Y50452D01*
X16328Y50505D01*
X16242Y50556D01*
X16154Y50603D01*
X16064Y50647D01*
X15973Y50687D01*
X15880Y50723D01*
X15786Y50757D01*
X15690Y50786D01*
X15594Y50811D01*
X15496Y50833D01*
X15398Y50851D01*
X15300Y50865D01*
X15200Y50875D01*
X15101Y50882D01*
X15001Y50884D01*
X14901Y50882D01*
X14801Y50876D01*
X14702Y50866D01*
X14603Y50853D01*
X14505Y50835D01*
X14408Y50813D01*
X14311Y50787D01*
X14216Y50758D01*
X14122Y50725D01*
X14029Y50688D01*
X13938Y50648D01*
X13848Y50604D01*
X13760Y50557D01*
X13674Y50506D01*
X13590Y50453D01*
X13508Y50396D01*
X13428Y50335D01*
X13351Y50272D01*
X13277Y50206D01*
X13205Y50137D01*
X13135Y50065D01*
X13069Y49990D01*
X13006Y49913D01*
X12946Y49834D01*
X12888Y49752D01*
X12835Y49668D01*
X12784Y49582D01*
X12737Y49494D01*
X12694Y49404D01*
X12654Y49313D01*
X12617Y49220D01*
X12584Y49125D01*
X12555Y49030D01*
X12530Y48933D01*
X12509Y48836D01*
X12491Y48738D01*
X12478Y48639D01*
X12468Y48539D01*
X12462Y48440D01*
X12460Y48340D01*
X12460Y48340D01*
G37*
D13*
X11825Y48340D02*
X11826Y48240D01*
X11831Y48141D01*
X11838Y48041D01*
X11849Y47942D01*
X11862Y47843D01*
X11879Y47744D01*
X11899Y47647D01*
X11922Y47550D01*
X11948Y47453D01*
X11977Y47358D01*
X12009Y47263D01*
X12044Y47170D01*
X12082Y47077D01*
X12123Y46986D01*
X12166Y46897D01*
X12213Y46809D01*
X12263Y46722D01*
X12315Y46637D01*
X12370Y46554D01*
X12428Y46472D01*
X12488Y46393D01*
X12551Y46315D01*
X12616Y46239D01*
X12683Y46166D01*
X12753Y46094D01*
X12825Y46025D01*
X12899Y45958D01*
X12975Y45894D01*
X13053Y45831D01*
X13133Y45772D01*
X13214Y45714D01*
X13298Y45660D01*
X13383Y45608D01*
X13470Y45558D01*
X13558Y45511D01*
X13647Y45467D01*
X13738Y45426D01*
X13830Y45388D01*
X13924Y45352D01*
X14018Y45319D01*
X14113Y45290D01*
X14209Y45263D01*
X14306Y45239D01*
X14404Y45219D01*
X14502Y45201D01*
X14601Y45187D01*
X14700Y45175D01*
X14799Y45167D01*
X14899Y45162D01*
X14999Y45160D01*
X15099Y45162D01*
X15198Y45166D01*
X15298Y45174D01*
X15397Y45185D01*
X15496Y45199D01*
X15594Y45217D01*
X15692Y45237D01*
X15789Y45261D01*
X15885Y45288D01*
X15980Y45317D01*
X16074Y45350D01*
X16168Y45386D01*
X16260Y45424D01*
X16350Y45466D01*
X16440Y45510D01*
X16528Y45557D01*
X16615Y45606D01*
X16700Y45658D01*
X16783Y45713D01*
X16865Y45770D01*
X16945Y45830D01*
X17023Y45893D01*
X17099Y45957D01*
X17173Y46025D01*
X17244Y46094D01*
X17314Y46166D01*
X17381Y46239D01*
X17446Y46315D01*
X17508Y46393D01*
X17568Y46473D01*
X17625Y46555D01*
X17680Y46638D01*
X17732Y46723D01*
X17782Y46810D01*
X17829Y46898D01*
X17873Y46987D01*
X17914Y47078D01*
X17952Y47171D01*
X17987Y47264D01*
X18020Y47358D01*
X18049Y47454D01*
X18075Y47550D01*
X18099Y47647D01*
X18119Y47745D01*
X18136Y47843D01*
X18150Y47942D01*
X18161Y48041D01*
X18169Y48141D01*
X18173Y48240D01*
X18175Y48340D01*
X18174Y48440D01*
X18169Y48539D01*
X18162Y48639D01*
X18151Y48738D01*
X18138Y48837D01*
X18121Y48936D01*
X18101Y49033D01*
X18078Y49130D01*
X18052Y49227D01*
X18023Y49322D01*
X17991Y49417D01*
X17956Y49510D01*
X17918Y49603D01*
X17877Y49694D01*
X17834Y49783D01*
X17787Y49871D01*
X17737Y49958D01*
X17685Y50043D01*
X17630Y50126D01*
X17572Y50208D01*
X17512Y50287D01*
X17449Y50365D01*
X17384Y50441D01*
X17317Y50514D01*
X17247Y50586D01*
X17175Y50655D01*
X17101Y50722D01*
X17025Y50786D01*
X16947Y50849D01*
X16867Y50908D01*
X16786Y50966D01*
X16702Y51020D01*
X16617Y51072D01*
X16530Y51122D01*
X16442Y51169D01*
X16353Y51213D01*
X16262Y51254D01*
X16170Y51292D01*
X16076Y51328D01*
X15982Y51361D01*
X15887Y51390D01*
X15791Y51417D01*
X15694Y51441D01*
X15596Y51461D01*
X15498Y51479D01*
X15399Y51493D01*
X15300Y51505D01*
X15201Y51513D01*
X15101Y51518D01*
X15001Y51520D01*
X14901Y51518D01*
X14802Y51514D01*
X14702Y51506D01*
X14603Y51495D01*
X14504Y51481D01*
X14406Y51463D01*
X14308Y51443D01*
X14211Y51419D01*
X14115Y51392D01*
X14020Y51363D01*
X13926Y51330D01*
X13832Y51294D01*
X13740Y51256D01*
X13650Y51214D01*
X13560Y51170D01*
X13472Y51123D01*
X13385Y51074D01*
X13300Y51022D01*
X13217Y50967D01*
X13135Y50910D01*
X13055Y50850D01*
X12977Y50787D01*
X12901Y50723D01*
X12827Y50655D01*
X12756Y50586D01*
X12686Y50514D01*
X12619Y50441D01*
X12554Y50365D01*
X12492Y50287D01*
X12432Y50207D01*
X12375Y50125D01*
X12320Y50042D01*
X12268Y49957D01*
X12218Y49870D01*
X12171Y49782D01*
X12127Y49693D01*
X12086Y49602D01*
X12048Y49509D01*
X12013Y49416D01*
X11980Y49322D01*
X11951Y49226D01*
X11925Y49130D01*
X11901Y49033D01*
X11881Y48935D01*
X11864Y48837D01*
X11850Y48738D01*
X11839Y48639D01*
X11831Y48539D01*
X11827Y48440D01*
X11825Y48340D01*
X11825Y48340D01*
G36*
X11825Y48340D02*
X11826Y48240D01*
X11831Y48141D01*
X11838Y48041D01*
X11849Y47942D01*
X11862Y47843D01*
X11879Y47744D01*
X11899Y47647D01*
X11922Y47550D01*
X11948Y47453D01*
X11977Y47358D01*
X12009Y47263D01*
X12044Y47170D01*
X12082Y47077D01*
X12123Y46986D01*
X12166Y46897D01*
X12213Y46809D01*
X12263Y46722D01*
X12315Y46637D01*
X12370Y46554D01*
X12428Y46472D01*
X12488Y46393D01*
X12551Y46315D01*
X12616Y46239D01*
X12683Y46166D01*
X12753Y46094D01*
X12825Y46025D01*
X12899Y45958D01*
X12975Y45894D01*
X13053Y45831D01*
X13133Y45772D01*
X13214Y45714D01*
X13298Y45660D01*
X13383Y45608D01*
X13470Y45558D01*
X13558Y45511D01*
X13647Y45467D01*
X13738Y45426D01*
X13830Y45388D01*
X13924Y45352D01*
X14018Y45319D01*
X14113Y45290D01*
X14209Y45263D01*
X14306Y45239D01*
X14404Y45219D01*
X14502Y45201D01*
X14601Y45187D01*
X14700Y45175D01*
X14799Y45167D01*
X14899Y45162D01*
X14999Y45160D01*
X15099Y45162D01*
X15198Y45166D01*
X15298Y45174D01*
X15397Y45185D01*
X15496Y45199D01*
X15594Y45217D01*
X15692Y45237D01*
X15789Y45261D01*
X15885Y45288D01*
X15980Y45317D01*
X16074Y45350D01*
X16168Y45386D01*
X16260Y45424D01*
X16350Y45466D01*
X16440Y45510D01*
X16528Y45557D01*
X16615Y45606D01*
X16700Y45658D01*
X16783Y45713D01*
X16865Y45770D01*
X16945Y45830D01*
X17023Y45893D01*
X17099Y45957D01*
X17173Y46025D01*
X17244Y46094D01*
X17314Y46166D01*
X17381Y46239D01*
X17446Y46315D01*
X17508Y46393D01*
X17568Y46473D01*
X17625Y46555D01*
X17680Y46638D01*
X17732Y46723D01*
X17782Y46810D01*
X17829Y46898D01*
X17873Y46987D01*
X17914Y47078D01*
X17952Y47171D01*
X17987Y47264D01*
X18020Y47358D01*
X18049Y47454D01*
X18075Y47550D01*
X18099Y47647D01*
X18119Y47745D01*
X18136Y47843D01*
X18150Y47942D01*
X18161Y48041D01*
X18169Y48141D01*
X18173Y48240D01*
X18175Y48340D01*
X18174Y48440D01*
X18169Y48539D01*
X18162Y48639D01*
X18151Y48738D01*
X18138Y48837D01*
X18121Y48936D01*
X18101Y49033D01*
X18078Y49130D01*
X18052Y49227D01*
X18023Y49322D01*
X17991Y49417D01*
X17956Y49510D01*
X17918Y49603D01*
X17877Y49694D01*
X17834Y49783D01*
X17787Y49871D01*
X17737Y49958D01*
X17685Y50043D01*
X17630Y50126D01*
X17572Y50208D01*
X17512Y50287D01*
X17449Y50365D01*
X17384Y50441D01*
X17317Y50514D01*
X17247Y50586D01*
X17175Y50655D01*
X17101Y50722D01*
X17025Y50786D01*
X16947Y50849D01*
X16867Y50908D01*
X16786Y50966D01*
X16702Y51020D01*
X16617Y51072D01*
X16530Y51122D01*
X16442Y51169D01*
X16353Y51213D01*
X16262Y51254D01*
X16170Y51292D01*
X16076Y51328D01*
X15982Y51361D01*
X15887Y51390D01*
X15791Y51417D01*
X15694Y51441D01*
X15596Y51461D01*
X15498Y51479D01*
X15399Y51493D01*
X15300Y51505D01*
X15201Y51513D01*
X15101Y51518D01*
X15001Y51520D01*
X14901Y51518D01*
X14802Y51514D01*
X14702Y51506D01*
X14603Y51495D01*
X14504Y51481D01*
X14406Y51463D01*
X14308Y51443D01*
X14211Y51419D01*
X14115Y51392D01*
X14020Y51363D01*
X13926Y51330D01*
X13832Y51294D01*
X13740Y51256D01*
X13650Y51214D01*
X13560Y51170D01*
X13472Y51123D01*
X13385Y51074D01*
X13300Y51022D01*
X13217Y50967D01*
X13135Y50910D01*
X13055Y50850D01*
X12977Y50787D01*
X12901Y50723D01*
X12827Y50655D01*
X12756Y50586D01*
X12686Y50514D01*
X12619Y50441D01*
X12554Y50365D01*
X12492Y50287D01*
X12432Y50207D01*
X12375Y50125D01*
X12320Y50042D01*
X12268Y49957D01*
X12218Y49870D01*
X12171Y49782D01*
X12127Y49693D01*
X12086Y49602D01*
X12048Y49509D01*
X12013Y49416D01*
X11980Y49322D01*
X11951Y49226D01*
X11925Y49130D01*
X11901Y49033D01*
X11881Y48935D01*
X11864Y48837D01*
X11850Y48738D01*
X11839Y48639D01*
X11831Y48539D01*
X11827Y48440D01*
X11825Y48340D01*
X11825Y48340D01*
G37*
D11*
X19444Y48007D02*
X19444Y48673D01*
X19833Y48673D01*
X19944Y48562D01*
X19944Y48118D01*
X19833Y48007D01*
X19444Y48007D01*
D11*
X20167Y48562D02*
X20167Y48590D01*
X20250Y48673D01*
X20472Y48673D01*
X20556Y48590D01*
X20556Y48479D01*
X20417Y48340D01*
X20556Y48201D01*
X20556Y48090D01*
X20472Y48007D01*
X20250Y48007D01*
X20167Y48090D01*
X20167Y48118D01*
D11*
X20333Y48340D02*
X20417Y48340D01*
D12*
X22540Y46435D02*
X22540Y50245D01*
D12*
X22540Y52150D02*
X23810Y50880D01*
D12*
X22540Y52150D02*
X16190Y52150D01*
D12*
X16190Y44530D02*
X16190Y52150D01*
D12*
X23810Y50880D02*
X23810Y44530D01*
D12*
X16190Y44530D02*
X17460Y44530D01*
D12*
X17460Y45038D02*
X17460Y44530D01*
D12*
X23810Y44530D02*
X22540Y44530D01*
D12*
X22540Y45038D02*
X22540Y44530D01*
D12*
X22540Y45038D02*
X17460Y45038D01*
D13*
X17460Y48340D02*
X17462Y48240D01*
X17467Y48141D01*
X17477Y48041D01*
X17490Y47942D01*
X17507Y47844D01*
X17528Y47746D01*
X17553Y47650D01*
X17581Y47554D01*
X17614Y47460D01*
X17650Y47367D01*
X17690Y47275D01*
X17733Y47185D01*
X17780Y47097D01*
X17831Y47011D01*
X17885Y46928D01*
X17942Y46846D01*
X18003Y46766D01*
X18066Y46690D01*
X18133Y46615D01*
X18202Y46543D01*
X18274Y46475D01*
X18349Y46409D01*
X18427Y46345D01*
X18506Y46285D01*
X18588Y46228D01*
X18672Y46175D01*
X18758Y46124D01*
X18846Y46077D01*
X18936Y46033D01*
X19027Y45993D01*
X19120Y45957D01*
X19214Y45923D01*
X19310Y45894D01*
X19406Y45869D01*
X19504Y45847D01*
X19602Y45829D01*
X19700Y45815D01*
X19800Y45805D01*
X19899Y45798D01*
X19999Y45796D01*
X20099Y45798D01*
X20199Y45804D01*
X20298Y45814D01*
X20397Y45827D01*
X20495Y45845D01*
X20592Y45867D01*
X20689Y45893D01*
X20784Y45922D01*
X20878Y45955D01*
X20971Y45992D01*
X21062Y46032D01*
X21152Y46076D01*
X21240Y46123D01*
X21326Y46174D01*
X21410Y46227D01*
X21492Y46284D01*
X21572Y46345D01*
X21649Y46408D01*
X21723Y46474D01*
X21795Y46543D01*
X21865Y46615D01*
X21931Y46690D01*
X21994Y46767D01*
X22054Y46846D01*
X22112Y46928D01*
X22165Y47012D01*
X22216Y47098D01*
X22263Y47186D01*
X22306Y47276D01*
X22346Y47367D01*
X22383Y47460D01*
X22416Y47555D01*
X22445Y47650D01*
X22470Y47747D01*
X22491Y47844D01*
X22509Y47942D01*
X22522Y48041D01*
X22532Y48141D01*
X22538Y48240D01*
X22540Y48340D01*
X22538Y48440D01*
X22533Y48539D01*
X22523Y48639D01*
X22510Y48738D01*
X22493Y48836D01*
X22472Y48934D01*
X22447Y49030D01*
X22419Y49126D01*
X22386Y49220D01*
X22350Y49313D01*
X22310Y49405D01*
X22267Y49495D01*
X22220Y49583D01*
X22169Y49669D01*
X22115Y49752D01*
X22058Y49834D01*
X21997Y49914D01*
X21934Y49990D01*
X21867Y50065D01*
X21798Y50137D01*
X21726Y50205D01*
X21651Y50271D01*
X21573Y50335D01*
X21494Y50395D01*
X21412Y50452D01*
X21328Y50505D01*
X21242Y50556D01*
X21154Y50603D01*
X21064Y50647D01*
X20973Y50687D01*
X20880Y50723D01*
X20786Y50757D01*
X20690Y50786D01*
X20594Y50811D01*
X20496Y50833D01*
X20398Y50851D01*
X20300Y50865D01*
X20200Y50875D01*
X20101Y50882D01*
X20001Y50884D01*
X19901Y50882D01*
X19801Y50876D01*
X19702Y50866D01*
X19603Y50853D01*
X19505Y50835D01*
X19408Y50813D01*
X19311Y50787D01*
X19216Y50758D01*
X19122Y50725D01*
X19029Y50688D01*
X18938Y50648D01*
X18848Y50604D01*
X18760Y50557D01*
X18674Y50506D01*
X18590Y50453D01*
X18508Y50396D01*
X18428Y50335D01*
X18351Y50272D01*
X18277Y50206D01*
X18205Y50137D01*
X18135Y50065D01*
X18069Y49990D01*
X18006Y49913D01*
X17946Y49834D01*
X17888Y49752D01*
X17835Y49668D01*
X17784Y49582D01*
X17737Y49494D01*
X17694Y49404D01*
X17654Y49313D01*
X17617Y49220D01*
X17584Y49125D01*
X17555Y49030D01*
X17530Y48933D01*
X17509Y48836D01*
X17491Y48738D01*
X17478Y48639D01*
X17468Y48539D01*
X17462Y48440D01*
X17460Y48340D01*
X17460Y48340D01*
G36*
X17460Y48340D02*
X17462Y48240D01*
X17467Y48141D01*
X17477Y48041D01*
X17490Y47942D01*
X17507Y47844D01*
X17528Y47746D01*
X17553Y47650D01*
X17581Y47554D01*
X17614Y47460D01*
X17650Y47367D01*
X17690Y47275D01*
X17733Y47185D01*
X17780Y47097D01*
X17831Y47011D01*
X17885Y46928D01*
X17942Y46846D01*
X18003Y46766D01*
X18066Y46690D01*
X18133Y46615D01*
X18202Y46543D01*
X18274Y46475D01*
X18349Y46409D01*
X18427Y46345D01*
X18506Y46285D01*
X18588Y46228D01*
X18672Y46175D01*
X18758Y46124D01*
X18846Y46077D01*
X18936Y46033D01*
X19027Y45993D01*
X19120Y45957D01*
X19214Y45923D01*
X19310Y45894D01*
X19406Y45869D01*
X19504Y45847D01*
X19602Y45829D01*
X19700Y45815D01*
X19800Y45805D01*
X19899Y45798D01*
X19999Y45796D01*
X20099Y45798D01*
X20199Y45804D01*
X20298Y45814D01*
X20397Y45827D01*
X20495Y45845D01*
X20592Y45867D01*
X20689Y45893D01*
X20784Y45922D01*
X20878Y45955D01*
X20971Y45992D01*
X21062Y46032D01*
X21152Y46076D01*
X21240Y46123D01*
X21326Y46174D01*
X21410Y46227D01*
X21492Y46284D01*
X21572Y46345D01*
X21649Y46408D01*
X21723Y46474D01*
X21795Y46543D01*
X21865Y46615D01*
X21931Y46690D01*
X21994Y46767D01*
X22054Y46846D01*
X22112Y46928D01*
X22165Y47012D01*
X22216Y47098D01*
X22263Y47186D01*
X22306Y47276D01*
X22346Y47367D01*
X22383Y47460D01*
X22416Y47555D01*
X22445Y47650D01*
X22470Y47747D01*
X22491Y47844D01*
X22509Y47942D01*
X22522Y48041D01*
X22532Y48141D01*
X22538Y48240D01*
X22540Y48340D01*
X22538Y48440D01*
X22533Y48539D01*
X22523Y48639D01*
X22510Y48738D01*
X22493Y48836D01*
X22472Y48934D01*
X22447Y49030D01*
X22419Y49126D01*
X22386Y49220D01*
X22350Y49313D01*
X22310Y49405D01*
X22267Y49495D01*
X22220Y49583D01*
X22169Y49669D01*
X22115Y49752D01*
X22058Y49834D01*
X21997Y49914D01*
X21934Y49990D01*
X21867Y50065D01*
X21798Y50137D01*
X21726Y50205D01*
X21651Y50271D01*
X21573Y50335D01*
X21494Y50395D01*
X21412Y50452D01*
X21328Y50505D01*
X21242Y50556D01*
X21154Y50603D01*
X21064Y50647D01*
X20973Y50687D01*
X20880Y50723D01*
X20786Y50757D01*
X20690Y50786D01*
X20594Y50811D01*
X20496Y50833D01*
X20398Y50851D01*
X20300Y50865D01*
X20200Y50875D01*
X20101Y50882D01*
X20001Y50884D01*
X19901Y50882D01*
X19801Y50876D01*
X19702Y50866D01*
X19603Y50853D01*
X19505Y50835D01*
X19408Y50813D01*
X19311Y50787D01*
X19216Y50758D01*
X19122Y50725D01*
X19029Y50688D01*
X18938Y50648D01*
X18848Y50604D01*
X18760Y50557D01*
X18674Y50506D01*
X18590Y50453D01*
X18508Y50396D01*
X18428Y50335D01*
X18351Y50272D01*
X18277Y50206D01*
X18205Y50137D01*
X18135Y50065D01*
X18069Y49990D01*
X18006Y49913D01*
X17946Y49834D01*
X17888Y49752D01*
X17835Y49668D01*
X17784Y49582D01*
X17737Y49494D01*
X17694Y49404D01*
X17654Y49313D01*
X17617Y49220D01*
X17584Y49125D01*
X17555Y49030D01*
X17530Y48933D01*
X17509Y48836D01*
X17491Y48738D01*
X17478Y48639D01*
X17468Y48539D01*
X17462Y48440D01*
X17460Y48340D01*
X17460Y48340D01*
G37*
D13*
X16825Y48340D02*
X16826Y48240D01*
X16831Y48141D01*
X16838Y48041D01*
X16849Y47942D01*
X16862Y47843D01*
X16879Y47744D01*
X16899Y47647D01*
X16922Y47550D01*
X16948Y47453D01*
X16977Y47358D01*
X17009Y47263D01*
X17044Y47170D01*
X17082Y47077D01*
X17123Y46986D01*
X17166Y46897D01*
X17213Y46809D01*
X17263Y46722D01*
X17315Y46637D01*
X17370Y46554D01*
X17428Y46472D01*
X17488Y46393D01*
X17551Y46315D01*
X17616Y46239D01*
X17683Y46166D01*
X17753Y46094D01*
X17825Y46025D01*
X17899Y45958D01*
X17975Y45894D01*
X18053Y45831D01*
X18133Y45772D01*
X18214Y45714D01*
X18298Y45660D01*
X18383Y45608D01*
X18470Y45558D01*
X18558Y45511D01*
X18647Y45467D01*
X18738Y45426D01*
X18830Y45388D01*
X18924Y45352D01*
X19018Y45319D01*
X19113Y45290D01*
X19209Y45263D01*
X19306Y45239D01*
X19404Y45219D01*
X19502Y45201D01*
X19601Y45187D01*
X19700Y45175D01*
X19799Y45167D01*
X19899Y45162D01*
X19999Y45160D01*
X20099Y45162D01*
X20198Y45166D01*
X20298Y45174D01*
X20397Y45185D01*
X20496Y45199D01*
X20594Y45217D01*
X20692Y45237D01*
X20789Y45261D01*
X20885Y45288D01*
X20980Y45317D01*
X21074Y45350D01*
X21168Y45386D01*
X21260Y45424D01*
X21350Y45466D01*
X21440Y45510D01*
X21528Y45557D01*
X21615Y45606D01*
X21700Y45658D01*
X21783Y45713D01*
X21865Y45770D01*
X21945Y45830D01*
X22023Y45893D01*
X22099Y45957D01*
X22173Y46025D01*
X22244Y46094D01*
X22314Y46166D01*
X22381Y46239D01*
X22446Y46315D01*
X22508Y46393D01*
X22568Y46473D01*
X22625Y46555D01*
X22680Y46638D01*
X22732Y46723D01*
X22782Y46810D01*
X22829Y46898D01*
X22873Y46987D01*
X22914Y47078D01*
X22952Y47171D01*
X22987Y47264D01*
X23020Y47358D01*
X23049Y47454D01*
X23075Y47550D01*
X23099Y47647D01*
X23119Y47745D01*
X23136Y47843D01*
X23150Y47942D01*
X23161Y48041D01*
X23169Y48141D01*
X23173Y48240D01*
X23175Y48340D01*
X23174Y48440D01*
X23169Y48539D01*
X23162Y48639D01*
X23151Y48738D01*
X23138Y48837D01*
X23121Y48936D01*
X23101Y49033D01*
X23078Y49130D01*
X23052Y49227D01*
X23023Y49322D01*
X22991Y49417D01*
X22956Y49510D01*
X22918Y49603D01*
X22877Y49694D01*
X22834Y49783D01*
X22787Y49871D01*
X22737Y49958D01*
X22685Y50043D01*
X22630Y50126D01*
X22572Y50208D01*
X22512Y50287D01*
X22449Y50365D01*
X22384Y50441D01*
X22317Y50514D01*
X22247Y50586D01*
X22175Y50655D01*
X22101Y50722D01*
X22025Y50786D01*
X21947Y50849D01*
X21867Y50908D01*
X21786Y50966D01*
X21702Y51020D01*
X21617Y51072D01*
X21530Y51122D01*
X21442Y51169D01*
X21353Y51213D01*
X21262Y51254D01*
X21170Y51292D01*
X21076Y51328D01*
X20982Y51361D01*
X20887Y51390D01*
X20791Y51417D01*
X20694Y51441D01*
X20596Y51461D01*
X20498Y51479D01*
X20399Y51493D01*
X20300Y51505D01*
X20201Y51513D01*
X20101Y51518D01*
X20001Y51520D01*
X19901Y51518D01*
X19802Y51514D01*
X19702Y51506D01*
X19603Y51495D01*
X19504Y51481D01*
X19406Y51463D01*
X19308Y51443D01*
X19211Y51419D01*
X19115Y51392D01*
X19020Y51363D01*
X18926Y51330D01*
X18832Y51294D01*
X18740Y51256D01*
X18650Y51214D01*
X18560Y51170D01*
X18472Y51123D01*
X18385Y51074D01*
X18300Y51022D01*
X18217Y50967D01*
X18135Y50910D01*
X18055Y50850D01*
X17977Y50787D01*
X17901Y50723D01*
X17827Y50655D01*
X17756Y50586D01*
X17686Y50514D01*
X17619Y50441D01*
X17554Y50365D01*
X17492Y50287D01*
X17432Y50207D01*
X17375Y50125D01*
X17320Y50042D01*
X17268Y49957D01*
X17218Y49870D01*
X17171Y49782D01*
X17127Y49693D01*
X17086Y49602D01*
X17048Y49509D01*
X17013Y49416D01*
X16980Y49322D01*
X16951Y49226D01*
X16925Y49130D01*
X16901Y49033D01*
X16881Y48935D01*
X16864Y48837D01*
X16850Y48738D01*
X16839Y48639D01*
X16831Y48539D01*
X16827Y48440D01*
X16825Y48340D01*
X16825Y48340D01*
G36*
X16825Y48340D02*
X16826Y48240D01*
X16831Y48141D01*
X16838Y48041D01*
X16849Y47942D01*
X16862Y47843D01*
X16879Y47744D01*
X16899Y47647D01*
X16922Y47550D01*
X16948Y47453D01*
X16977Y47358D01*
X17009Y47263D01*
X17044Y47170D01*
X17082Y47077D01*
X17123Y46986D01*
X17166Y46897D01*
X17213Y46809D01*
X17263Y46722D01*
X17315Y46637D01*
X17370Y46554D01*
X17428Y46472D01*
X17488Y46393D01*
X17551Y46315D01*
X17616Y46239D01*
X17683Y46166D01*
X17753Y46094D01*
X17825Y46025D01*
X17899Y45958D01*
X17975Y45894D01*
X18053Y45831D01*
X18133Y45772D01*
X18214Y45714D01*
X18298Y45660D01*
X18383Y45608D01*
X18470Y45558D01*
X18558Y45511D01*
X18647Y45467D01*
X18738Y45426D01*
X18830Y45388D01*
X18924Y45352D01*
X19018Y45319D01*
X19113Y45290D01*
X19209Y45263D01*
X19306Y45239D01*
X19404Y45219D01*
X19502Y45201D01*
X19601Y45187D01*
X19700Y45175D01*
X19799Y45167D01*
X19899Y45162D01*
X19999Y45160D01*
X20099Y45162D01*
X20198Y45166D01*
X20298Y45174D01*
X20397Y45185D01*
X20496Y45199D01*
X20594Y45217D01*
X20692Y45237D01*
X20789Y45261D01*
X20885Y45288D01*
X20980Y45317D01*
X21074Y45350D01*
X21168Y45386D01*
X21260Y45424D01*
X21350Y45466D01*
X21440Y45510D01*
X21528Y45557D01*
X21615Y45606D01*
X21700Y45658D01*
X21783Y45713D01*
X21865Y45770D01*
X21945Y45830D01*
X22023Y45893D01*
X22099Y45957D01*
X22173Y46025D01*
X22244Y46094D01*
X22314Y46166D01*
X22381Y46239D01*
X22446Y46315D01*
X22508Y46393D01*
X22568Y46473D01*
X22625Y46555D01*
X22680Y46638D01*
X22732Y46723D01*
X22782Y46810D01*
X22829Y46898D01*
X22873Y46987D01*
X22914Y47078D01*
X22952Y47171D01*
X22987Y47264D01*
X23020Y47358D01*
X23049Y47454D01*
X23075Y47550D01*
X23099Y47647D01*
X23119Y47745D01*
X23136Y47843D01*
X23150Y47942D01*
X23161Y48041D01*
X23169Y48141D01*
X23173Y48240D01*
X23175Y48340D01*
X23174Y48440D01*
X23169Y48539D01*
X23162Y48639D01*
X23151Y48738D01*
X23138Y48837D01*
X23121Y48936D01*
X23101Y49033D01*
X23078Y49130D01*
X23052Y49227D01*
X23023Y49322D01*
X22991Y49417D01*
X22956Y49510D01*
X22918Y49603D01*
X22877Y49694D01*
X22834Y49783D01*
X22787Y49871D01*
X22737Y49958D01*
X22685Y50043D01*
X22630Y50126D01*
X22572Y50208D01*
X22512Y50287D01*
X22449Y50365D01*
X22384Y50441D01*
X22317Y50514D01*
X22247Y50586D01*
X22175Y50655D01*
X22101Y50722D01*
X22025Y50786D01*
X21947Y50849D01*
X21867Y50908D01*
X21786Y50966D01*
X21702Y51020D01*
X21617Y51072D01*
X21530Y51122D01*
X21442Y51169D01*
X21353Y51213D01*
X21262Y51254D01*
X21170Y51292D01*
X21076Y51328D01*
X20982Y51361D01*
X20887Y51390D01*
X20791Y51417D01*
X20694Y51441D01*
X20596Y51461D01*
X20498Y51479D01*
X20399Y51493D01*
X20300Y51505D01*
X20201Y51513D01*
X20101Y51518D01*
X20001Y51520D01*
X19901Y51518D01*
X19802Y51514D01*
X19702Y51506D01*
X19603Y51495D01*
X19504Y51481D01*
X19406Y51463D01*
X19308Y51443D01*
X19211Y51419D01*
X19115Y51392D01*
X19020Y51363D01*
X18926Y51330D01*
X18832Y51294D01*
X18740Y51256D01*
X18650Y51214D01*
X18560Y51170D01*
X18472Y51123D01*
X18385Y51074D01*
X18300Y51022D01*
X18217Y50967D01*
X18135Y50910D01*
X18055Y50850D01*
X17977Y50787D01*
X17901Y50723D01*
X17827Y50655D01*
X17756Y50586D01*
X17686Y50514D01*
X17619Y50441D01*
X17554Y50365D01*
X17492Y50287D01*
X17432Y50207D01*
X17375Y50125D01*
X17320Y50042D01*
X17268Y49957D01*
X17218Y49870D01*
X17171Y49782D01*
X17127Y49693D01*
X17086Y49602D01*
X17048Y49509D01*
X17013Y49416D01*
X16980Y49322D01*
X16951Y49226D01*
X16925Y49130D01*
X16901Y49033D01*
X16881Y48935D01*
X16864Y48837D01*
X16850Y48738D01*
X16839Y48639D01*
X16831Y48539D01*
X16827Y48440D01*
X16825Y48340D01*
X16825Y48340D01*
G37*
D11*
X24444Y48007D02*
X24444Y48673D01*
X24833Y48673D01*
X24944Y48562D01*
X24944Y48118D01*
X24833Y48007D01*
X24444Y48007D01*
D11*
X25500Y48007D02*
X25500Y48673D01*
X25444Y48673D01*
X25167Y48257D01*
X25167Y48146D01*
X25556Y48146D01*
D12*
X27540Y46435D02*
X27540Y50245D01*
D12*
X27540Y52150D02*
X28810Y50880D01*
D12*
X27540Y52150D02*
X21190Y52150D01*
D12*
X21190Y44530D02*
X21190Y52150D01*
D12*
X28810Y50880D02*
X28810Y44530D01*
D12*
X21190Y44530D02*
X22460Y44530D01*
D12*
X22460Y45038D02*
X22460Y44530D01*
D12*
X28810Y44530D02*
X27540Y44530D01*
D12*
X27540Y45038D02*
X27540Y44530D01*
D12*
X27540Y45038D02*
X22460Y45038D01*
D13*
X22460Y48340D02*
X22462Y48240D01*
X22467Y48141D01*
X22477Y48041D01*
X22490Y47942D01*
X22507Y47844D01*
X22528Y47746D01*
X22553Y47650D01*
X22581Y47554D01*
X22614Y47460D01*
X22650Y47367D01*
X22690Y47275D01*
X22733Y47185D01*
X22780Y47097D01*
X22831Y47011D01*
X22885Y46928D01*
X22942Y46846D01*
X23003Y46766D01*
X23066Y46690D01*
X23133Y46615D01*
X23202Y46543D01*
X23274Y46475D01*
X23349Y46409D01*
X23427Y46345D01*
X23506Y46285D01*
X23588Y46228D01*
X23672Y46175D01*
X23758Y46124D01*
X23846Y46077D01*
X23936Y46033D01*
X24027Y45993D01*
X24120Y45957D01*
X24214Y45923D01*
X24310Y45894D01*
X24406Y45869D01*
X24504Y45847D01*
X24602Y45829D01*
X24700Y45815D01*
X24800Y45805D01*
X24899Y45798D01*
X24999Y45796D01*
X25099Y45798D01*
X25199Y45804D01*
X25298Y45814D01*
X25397Y45827D01*
X25495Y45845D01*
X25592Y45867D01*
X25689Y45893D01*
X25784Y45922D01*
X25878Y45955D01*
X25971Y45992D01*
X26062Y46032D01*
X26152Y46076D01*
X26240Y46123D01*
X26326Y46174D01*
X26410Y46227D01*
X26492Y46284D01*
X26572Y46345D01*
X26649Y46408D01*
X26723Y46474D01*
X26795Y46543D01*
X26865Y46615D01*
X26931Y46690D01*
X26994Y46767D01*
X27054Y46846D01*
X27112Y46928D01*
X27165Y47012D01*
X27216Y47098D01*
X27263Y47186D01*
X27306Y47276D01*
X27346Y47367D01*
X27383Y47460D01*
X27416Y47555D01*
X27445Y47650D01*
X27470Y47747D01*
X27491Y47844D01*
X27509Y47942D01*
X27522Y48041D01*
X27532Y48141D01*
X27538Y48240D01*
X27540Y48340D01*
X27538Y48440D01*
X27533Y48539D01*
X27523Y48639D01*
X27510Y48738D01*
X27493Y48836D01*
X27472Y48934D01*
X27447Y49030D01*
X27419Y49126D01*
X27386Y49220D01*
X27350Y49313D01*
X27310Y49405D01*
X27267Y49495D01*
X27220Y49583D01*
X27169Y49669D01*
X27115Y49752D01*
X27058Y49834D01*
X26997Y49914D01*
X26934Y49990D01*
X26867Y50065D01*
X26798Y50137D01*
X26726Y50205D01*
X26651Y50271D01*
X26573Y50335D01*
X26494Y50395D01*
X26412Y50452D01*
X26328Y50505D01*
X26242Y50556D01*
X26154Y50603D01*
X26064Y50647D01*
X25973Y50687D01*
X25880Y50723D01*
X25786Y50757D01*
X25690Y50786D01*
X25594Y50811D01*
X25496Y50833D01*
X25398Y50851D01*
X25300Y50865D01*
X25200Y50875D01*
X25101Y50882D01*
X25001Y50884D01*
X24901Y50882D01*
X24801Y50876D01*
X24702Y50866D01*
X24603Y50853D01*
X24505Y50835D01*
X24408Y50813D01*
X24311Y50787D01*
X24216Y50758D01*
X24122Y50725D01*
X24029Y50688D01*
X23938Y50648D01*
X23848Y50604D01*
X23760Y50557D01*
X23674Y50506D01*
X23590Y50453D01*
X23508Y50396D01*
X23428Y50335D01*
X23351Y50272D01*
X23277Y50206D01*
X23205Y50137D01*
X23135Y50065D01*
X23069Y49990D01*
X23006Y49913D01*
X22946Y49834D01*
X22888Y49752D01*
X22835Y49668D01*
X22784Y49582D01*
X22737Y49494D01*
X22694Y49404D01*
X22654Y49313D01*
X22617Y49220D01*
X22584Y49125D01*
X22555Y49030D01*
X22530Y48933D01*
X22509Y48836D01*
X22491Y48738D01*
X22478Y48639D01*
X22468Y48539D01*
X22462Y48440D01*
X22460Y48340D01*
X22460Y48340D01*
G36*
X22460Y48340D02*
X22462Y48240D01*
X22467Y48141D01*
X22477Y48041D01*
X22490Y47942D01*
X22507Y47844D01*
X22528Y47746D01*
X22553Y47650D01*
X22581Y47554D01*
X22614Y47460D01*
X22650Y47367D01*
X22690Y47275D01*
X22733Y47185D01*
X22780Y47097D01*
X22831Y47011D01*
X22885Y46928D01*
X22942Y46846D01*
X23003Y46766D01*
X23066Y46690D01*
X23133Y46615D01*
X23202Y46543D01*
X23274Y46475D01*
X23349Y46409D01*
X23427Y46345D01*
X23506Y46285D01*
X23588Y46228D01*
X23672Y46175D01*
X23758Y46124D01*
X23846Y46077D01*
X23936Y46033D01*
X24027Y45993D01*
X24120Y45957D01*
X24214Y45923D01*
X24310Y45894D01*
X24406Y45869D01*
X24504Y45847D01*
X24602Y45829D01*
X24700Y45815D01*
X24800Y45805D01*
X24899Y45798D01*
X24999Y45796D01*
X25099Y45798D01*
X25199Y45804D01*
X25298Y45814D01*
X25397Y45827D01*
X25495Y45845D01*
X25592Y45867D01*
X25689Y45893D01*
X25784Y45922D01*
X25878Y45955D01*
X25971Y45992D01*
X26062Y46032D01*
X26152Y46076D01*
X26240Y46123D01*
X26326Y46174D01*
X26410Y46227D01*
X26492Y46284D01*
X26572Y46345D01*
X26649Y46408D01*
X26723Y46474D01*
X26795Y46543D01*
X26865Y46615D01*
X26931Y46690D01*
X26994Y46767D01*
X27054Y46846D01*
X27112Y46928D01*
X27165Y47012D01*
X27216Y47098D01*
X27263Y47186D01*
X27306Y47276D01*
X27346Y47367D01*
X27383Y47460D01*
X27416Y47555D01*
X27445Y47650D01*
X27470Y47747D01*
X27491Y47844D01*
X27509Y47942D01*
X27522Y48041D01*
X27532Y48141D01*
X27538Y48240D01*
X27540Y48340D01*
X27538Y48440D01*
X27533Y48539D01*
X27523Y48639D01*
X27510Y48738D01*
X27493Y48836D01*
X27472Y48934D01*
X27447Y49030D01*
X27419Y49126D01*
X27386Y49220D01*
X27350Y49313D01*
X27310Y49405D01*
X27267Y49495D01*
X27220Y49583D01*
X27169Y49669D01*
X27115Y49752D01*
X27058Y49834D01*
X26997Y49914D01*
X26934Y49990D01*
X26867Y50065D01*
X26798Y50137D01*
X26726Y50205D01*
X26651Y50271D01*
X26573Y50335D01*
X26494Y50395D01*
X26412Y50452D01*
X26328Y50505D01*
X26242Y50556D01*
X26154Y50603D01*
X26064Y50647D01*
X25973Y50687D01*
X25880Y50723D01*
X25786Y50757D01*
X25690Y50786D01*
X25594Y50811D01*
X25496Y50833D01*
X25398Y50851D01*
X25300Y50865D01*
X25200Y50875D01*
X25101Y50882D01*
X25001Y50884D01*
X24901Y50882D01*
X24801Y50876D01*
X24702Y50866D01*
X24603Y50853D01*
X24505Y50835D01*
X24408Y50813D01*
X24311Y50787D01*
X24216Y50758D01*
X24122Y50725D01*
X24029Y50688D01*
X23938Y50648D01*
X23848Y50604D01*
X23760Y50557D01*
X23674Y50506D01*
X23590Y50453D01*
X23508Y50396D01*
X23428Y50335D01*
X23351Y50272D01*
X23277Y50206D01*
X23205Y50137D01*
X23135Y50065D01*
X23069Y49990D01*
X23006Y49913D01*
X22946Y49834D01*
X22888Y49752D01*
X22835Y49668D01*
X22784Y49582D01*
X22737Y49494D01*
X22694Y49404D01*
X22654Y49313D01*
X22617Y49220D01*
X22584Y49125D01*
X22555Y49030D01*
X22530Y48933D01*
X22509Y48836D01*
X22491Y48738D01*
X22478Y48639D01*
X22468Y48539D01*
X22462Y48440D01*
X22460Y48340D01*
X22460Y48340D01*
G37*
D13*
X21825Y48340D02*
X21826Y48240D01*
X21831Y48141D01*
X21838Y48041D01*
X21849Y47942D01*
X21862Y47843D01*
X21879Y47744D01*
X21899Y47647D01*
X21922Y47550D01*
X21948Y47453D01*
X21977Y47358D01*
X22009Y47263D01*
X22044Y47170D01*
X22082Y47077D01*
X22123Y46986D01*
X22166Y46897D01*
X22213Y46809D01*
X22263Y46722D01*
X22315Y46637D01*
X22370Y46554D01*
X22428Y46472D01*
X22488Y46393D01*
X22551Y46315D01*
X22616Y46239D01*
X22683Y46166D01*
X22753Y46094D01*
X22825Y46025D01*
X22899Y45958D01*
X22975Y45894D01*
X23053Y45831D01*
X23133Y45772D01*
X23214Y45714D01*
X23298Y45660D01*
X23383Y45608D01*
X23470Y45558D01*
X23558Y45511D01*
X23647Y45467D01*
X23738Y45426D01*
X23830Y45388D01*
X23924Y45352D01*
X24018Y45319D01*
X24113Y45290D01*
X24209Y45263D01*
X24306Y45239D01*
X24404Y45219D01*
X24502Y45201D01*
X24601Y45187D01*
X24700Y45175D01*
X24799Y45167D01*
X24899Y45162D01*
X24999Y45160D01*
X25099Y45162D01*
X25198Y45166D01*
X25298Y45174D01*
X25397Y45185D01*
X25496Y45199D01*
X25594Y45217D01*
X25692Y45237D01*
X25789Y45261D01*
X25885Y45288D01*
X25980Y45317D01*
X26074Y45350D01*
X26168Y45386D01*
X26260Y45424D01*
X26350Y45466D01*
X26440Y45510D01*
X26528Y45557D01*
X26615Y45606D01*
X26700Y45658D01*
X26783Y45713D01*
X26865Y45770D01*
X26945Y45830D01*
X27023Y45893D01*
X27099Y45957D01*
X27173Y46025D01*
X27244Y46094D01*
X27314Y46166D01*
X27381Y46239D01*
X27446Y46315D01*
X27508Y46393D01*
X27568Y46473D01*
X27625Y46555D01*
X27680Y46638D01*
X27732Y46723D01*
X27782Y46810D01*
X27829Y46898D01*
X27873Y46987D01*
X27914Y47078D01*
X27952Y47171D01*
X27987Y47264D01*
X28020Y47358D01*
X28049Y47454D01*
X28075Y47550D01*
X28099Y47647D01*
X28119Y47745D01*
X28136Y47843D01*
X28150Y47942D01*
X28161Y48041D01*
X28169Y48141D01*
X28173Y48240D01*
X28175Y48340D01*
X28174Y48440D01*
X28169Y48539D01*
X28162Y48639D01*
X28151Y48738D01*
X28138Y48837D01*
X28121Y48936D01*
X28101Y49033D01*
X28078Y49130D01*
X28052Y49227D01*
X28023Y49322D01*
X27991Y49417D01*
X27956Y49510D01*
X27918Y49603D01*
X27877Y49694D01*
X27834Y49783D01*
X27787Y49871D01*
X27737Y49958D01*
X27685Y50043D01*
X27630Y50126D01*
X27572Y50208D01*
X27512Y50287D01*
X27449Y50365D01*
X27384Y50441D01*
X27317Y50514D01*
X27247Y50586D01*
X27175Y50655D01*
X27101Y50722D01*
X27025Y50786D01*
X26947Y50849D01*
X26867Y50908D01*
X26786Y50966D01*
X26702Y51020D01*
X26617Y51072D01*
X26530Y51122D01*
X26442Y51169D01*
X26353Y51213D01*
X26262Y51254D01*
X26170Y51292D01*
X26076Y51328D01*
X25982Y51361D01*
X25887Y51390D01*
X25791Y51417D01*
X25694Y51441D01*
X25596Y51461D01*
X25498Y51479D01*
X25399Y51493D01*
X25300Y51505D01*
X25201Y51513D01*
X25101Y51518D01*
X25001Y51520D01*
X24901Y51518D01*
X24802Y51514D01*
X24702Y51506D01*
X24603Y51495D01*
X24504Y51481D01*
X24406Y51463D01*
X24308Y51443D01*
X24211Y51419D01*
X24115Y51392D01*
X24020Y51363D01*
X23926Y51330D01*
X23832Y51294D01*
X23740Y51256D01*
X23650Y51214D01*
X23560Y51170D01*
X23472Y51123D01*
X23385Y51074D01*
X23300Y51022D01*
X23217Y50967D01*
X23135Y50910D01*
X23055Y50850D01*
X22977Y50787D01*
X22901Y50723D01*
X22827Y50655D01*
X22756Y50586D01*
X22686Y50514D01*
X22619Y50441D01*
X22554Y50365D01*
X22492Y50287D01*
X22432Y50207D01*
X22375Y50125D01*
X22320Y50042D01*
X22268Y49957D01*
X22218Y49870D01*
X22171Y49782D01*
X22127Y49693D01*
X22086Y49602D01*
X22048Y49509D01*
X22013Y49416D01*
X21980Y49322D01*
X21951Y49226D01*
X21925Y49130D01*
X21901Y49033D01*
X21881Y48935D01*
X21864Y48837D01*
X21850Y48738D01*
X21839Y48639D01*
X21831Y48539D01*
X21827Y48440D01*
X21825Y48340D01*
X21825Y48340D01*
G36*
X21825Y48340D02*
X21826Y48240D01*
X21831Y48141D01*
X21838Y48041D01*
X21849Y47942D01*
X21862Y47843D01*
X21879Y47744D01*
X21899Y47647D01*
X21922Y47550D01*
X21948Y47453D01*
X21977Y47358D01*
X22009Y47263D01*
X22044Y47170D01*
X22082Y47077D01*
X22123Y46986D01*
X22166Y46897D01*
X22213Y46809D01*
X22263Y46722D01*
X22315Y46637D01*
X22370Y46554D01*
X22428Y46472D01*
X22488Y46393D01*
X22551Y46315D01*
X22616Y46239D01*
X22683Y46166D01*
X22753Y46094D01*
X22825Y46025D01*
X22899Y45958D01*
X22975Y45894D01*
X23053Y45831D01*
X23133Y45772D01*
X23214Y45714D01*
X23298Y45660D01*
X23383Y45608D01*
X23470Y45558D01*
X23558Y45511D01*
X23647Y45467D01*
X23738Y45426D01*
X23830Y45388D01*
X23924Y45352D01*
X24018Y45319D01*
X24113Y45290D01*
X24209Y45263D01*
X24306Y45239D01*
X24404Y45219D01*
X24502Y45201D01*
X24601Y45187D01*
X24700Y45175D01*
X24799Y45167D01*
X24899Y45162D01*
X24999Y45160D01*
X25099Y45162D01*
X25198Y45166D01*
X25298Y45174D01*
X25397Y45185D01*
X25496Y45199D01*
X25594Y45217D01*
X25692Y45237D01*
X25789Y45261D01*
X25885Y45288D01*
X25980Y45317D01*
X26074Y45350D01*
X26168Y45386D01*
X26260Y45424D01*
X26350Y45466D01*
X26440Y45510D01*
X26528Y45557D01*
X26615Y45606D01*
X26700Y45658D01*
X26783Y45713D01*
X26865Y45770D01*
X26945Y45830D01*
X27023Y45893D01*
X27099Y45957D01*
X27173Y46025D01*
X27244Y46094D01*
X27314Y46166D01*
X27381Y46239D01*
X27446Y46315D01*
X27508Y46393D01*
X27568Y46473D01*
X27625Y46555D01*
X27680Y46638D01*
X27732Y46723D01*
X27782Y46810D01*
X27829Y46898D01*
X27873Y46987D01*
X27914Y47078D01*
X27952Y47171D01*
X27987Y47264D01*
X28020Y47358D01*
X28049Y47454D01*
X28075Y47550D01*
X28099Y47647D01*
X28119Y47745D01*
X28136Y47843D01*
X28150Y47942D01*
X28161Y48041D01*
X28169Y48141D01*
X28173Y48240D01*
X28175Y48340D01*
X28174Y48440D01*
X28169Y48539D01*
X28162Y48639D01*
X28151Y48738D01*
X28138Y48837D01*
X28121Y48936D01*
X28101Y49033D01*
X28078Y49130D01*
X28052Y49227D01*
X28023Y49322D01*
X27991Y49417D01*
X27956Y49510D01*
X27918Y49603D01*
X27877Y49694D01*
X27834Y49783D01*
X27787Y49871D01*
X27737Y49958D01*
X27685Y50043D01*
X27630Y50126D01*
X27572Y50208D01*
X27512Y50287D01*
X27449Y50365D01*
X27384Y50441D01*
X27317Y50514D01*
X27247Y50586D01*
X27175Y50655D01*
X27101Y50722D01*
X27025Y50786D01*
X26947Y50849D01*
X26867Y50908D01*
X26786Y50966D01*
X26702Y51020D01*
X26617Y51072D01*
X26530Y51122D01*
X26442Y51169D01*
X26353Y51213D01*
X26262Y51254D01*
X26170Y51292D01*
X26076Y51328D01*
X25982Y51361D01*
X25887Y51390D01*
X25791Y51417D01*
X25694Y51441D01*
X25596Y51461D01*
X25498Y51479D01*
X25399Y51493D01*
X25300Y51505D01*
X25201Y51513D01*
X25101Y51518D01*
X25001Y51520D01*
X24901Y51518D01*
X24802Y51514D01*
X24702Y51506D01*
X24603Y51495D01*
X24504Y51481D01*
X24406Y51463D01*
X24308Y51443D01*
X24211Y51419D01*
X24115Y51392D01*
X24020Y51363D01*
X23926Y51330D01*
X23832Y51294D01*
X23740Y51256D01*
X23650Y51214D01*
X23560Y51170D01*
X23472Y51123D01*
X23385Y51074D01*
X23300Y51022D01*
X23217Y50967D01*
X23135Y50910D01*
X23055Y50850D01*
X22977Y50787D01*
X22901Y50723D01*
X22827Y50655D01*
X22756Y50586D01*
X22686Y50514D01*
X22619Y50441D01*
X22554Y50365D01*
X22492Y50287D01*
X22432Y50207D01*
X22375Y50125D01*
X22320Y50042D01*
X22268Y49957D01*
X22218Y49870D01*
X22171Y49782D01*
X22127Y49693D01*
X22086Y49602D01*
X22048Y49509D01*
X22013Y49416D01*
X21980Y49322D01*
X21951Y49226D01*
X21925Y49130D01*
X21901Y49033D01*
X21881Y48935D01*
X21864Y48837D01*
X21850Y48738D01*
X21839Y48639D01*
X21831Y48539D01*
X21827Y48440D01*
X21825Y48340D01*
X21825Y48340D01*
G37*
D11*
X29444Y48007D02*
X29444Y48673D01*
X29833Y48673D01*
X29944Y48562D01*
X29944Y48118D01*
X29833Y48007D01*
X29444Y48007D01*
D11*
X30167Y48118D02*
X30167Y48090D01*
X30250Y48007D01*
X30472Y48007D01*
X30556Y48090D01*
X30556Y48284D01*
X30472Y48368D01*
X30167Y48368D01*
X30167Y48673D01*
X30500Y48673D01*
D12*
X32540Y46435D02*
X32540Y50245D01*
D12*
X32540Y52150D02*
X33810Y50880D01*
D12*
X32540Y52150D02*
X26190Y52150D01*
D12*
X26190Y44530D02*
X26190Y52150D01*
D12*
X33810Y50880D02*
X33810Y44530D01*
D12*
X26190Y44530D02*
X27460Y44530D01*
D12*
X27460Y45038D02*
X27460Y44530D01*
D12*
X33810Y44530D02*
X32540Y44530D01*
D12*
X32540Y45038D02*
X32540Y44530D01*
D12*
X32540Y45038D02*
X27460Y45038D01*
D13*
X27460Y48340D02*
X27462Y48240D01*
X27467Y48141D01*
X27477Y48041D01*
X27490Y47942D01*
X27507Y47844D01*
X27528Y47746D01*
X27553Y47650D01*
X27581Y47554D01*
X27614Y47460D01*
X27650Y47367D01*
X27690Y47275D01*
X27733Y47185D01*
X27780Y47097D01*
X27831Y47011D01*
X27885Y46928D01*
X27942Y46846D01*
X28003Y46766D01*
X28066Y46690D01*
X28133Y46615D01*
X28202Y46543D01*
X28274Y46475D01*
X28349Y46409D01*
X28427Y46345D01*
X28506Y46285D01*
X28588Y46228D01*
X28672Y46175D01*
X28758Y46124D01*
X28846Y46077D01*
X28936Y46033D01*
X29027Y45993D01*
X29120Y45957D01*
X29214Y45923D01*
X29310Y45894D01*
X29406Y45869D01*
X29504Y45847D01*
X29602Y45829D01*
X29700Y45815D01*
X29800Y45805D01*
X29899Y45798D01*
X29999Y45796D01*
X30099Y45798D01*
X30199Y45804D01*
X30298Y45814D01*
X30397Y45827D01*
X30495Y45845D01*
X30592Y45867D01*
X30689Y45893D01*
X30784Y45922D01*
X30878Y45955D01*
X30971Y45992D01*
X31062Y46032D01*
X31152Y46076D01*
X31240Y46123D01*
X31326Y46174D01*
X31410Y46227D01*
X31492Y46284D01*
X31572Y46345D01*
X31649Y46408D01*
X31723Y46474D01*
X31795Y46543D01*
X31865Y46615D01*
X31931Y46690D01*
X31994Y46767D01*
X32054Y46846D01*
X32112Y46928D01*
X32165Y47012D01*
X32216Y47098D01*
X32263Y47186D01*
X32306Y47276D01*
X32346Y47367D01*
X32383Y47460D01*
X32416Y47555D01*
X32445Y47650D01*
X32470Y47747D01*
X32491Y47844D01*
X32509Y47942D01*
X32522Y48041D01*
X32532Y48141D01*
X32538Y48240D01*
X32540Y48340D01*
X32538Y48440D01*
X32533Y48539D01*
X32523Y48639D01*
X32510Y48738D01*
X32493Y48836D01*
X32472Y48934D01*
X32447Y49030D01*
X32419Y49126D01*
X32386Y49220D01*
X32350Y49313D01*
X32310Y49405D01*
X32267Y49495D01*
X32220Y49583D01*
X32169Y49669D01*
X32115Y49752D01*
X32058Y49834D01*
X31997Y49914D01*
X31934Y49990D01*
X31867Y50065D01*
X31798Y50137D01*
X31726Y50205D01*
X31651Y50271D01*
X31573Y50335D01*
X31494Y50395D01*
X31412Y50452D01*
X31328Y50505D01*
X31242Y50556D01*
X31154Y50603D01*
X31064Y50647D01*
X30973Y50687D01*
X30880Y50723D01*
X30786Y50757D01*
X30690Y50786D01*
X30594Y50811D01*
X30496Y50833D01*
X30398Y50851D01*
X30300Y50865D01*
X30200Y50875D01*
X30101Y50882D01*
X30001Y50884D01*
X29901Y50882D01*
X29801Y50876D01*
X29702Y50866D01*
X29603Y50853D01*
X29505Y50835D01*
X29408Y50813D01*
X29311Y50787D01*
X29216Y50758D01*
X29122Y50725D01*
X29029Y50688D01*
X28938Y50648D01*
X28848Y50604D01*
X28760Y50557D01*
X28674Y50506D01*
X28590Y50453D01*
X28508Y50396D01*
X28428Y50335D01*
X28351Y50272D01*
X28277Y50206D01*
X28205Y50137D01*
X28135Y50065D01*
X28069Y49990D01*
X28006Y49913D01*
X27946Y49834D01*
X27888Y49752D01*
X27835Y49668D01*
X27784Y49582D01*
X27737Y49494D01*
X27694Y49404D01*
X27654Y49313D01*
X27617Y49220D01*
X27584Y49125D01*
X27555Y49030D01*
X27530Y48933D01*
X27509Y48836D01*
X27491Y48738D01*
X27478Y48639D01*
X27468Y48539D01*
X27462Y48440D01*
X27460Y48340D01*
X27460Y48340D01*
G36*
X27460Y48340D02*
X27462Y48240D01*
X27467Y48141D01*
X27477Y48041D01*
X27490Y47942D01*
X27507Y47844D01*
X27528Y47746D01*
X27553Y47650D01*
X27581Y47554D01*
X27614Y47460D01*
X27650Y47367D01*
X27690Y47275D01*
X27733Y47185D01*
X27780Y47097D01*
X27831Y47011D01*
X27885Y46928D01*
X27942Y46846D01*
X28003Y46766D01*
X28066Y46690D01*
X28133Y46615D01*
X28202Y46543D01*
X28274Y46475D01*
X28349Y46409D01*
X28427Y46345D01*
X28506Y46285D01*
X28588Y46228D01*
X28672Y46175D01*
X28758Y46124D01*
X28846Y46077D01*
X28936Y46033D01*
X29027Y45993D01*
X29120Y45957D01*
X29214Y45923D01*
X29310Y45894D01*
X29406Y45869D01*
X29504Y45847D01*
X29602Y45829D01*
X29700Y45815D01*
X29800Y45805D01*
X29899Y45798D01*
X29999Y45796D01*
X30099Y45798D01*
X30199Y45804D01*
X30298Y45814D01*
X30397Y45827D01*
X30495Y45845D01*
X30592Y45867D01*
X30689Y45893D01*
X30784Y45922D01*
X30878Y45955D01*
X30971Y45992D01*
X31062Y46032D01*
X31152Y46076D01*
X31240Y46123D01*
X31326Y46174D01*
X31410Y46227D01*
X31492Y46284D01*
X31572Y46345D01*
X31649Y46408D01*
X31723Y46474D01*
X31795Y46543D01*
X31865Y46615D01*
X31931Y46690D01*
X31994Y46767D01*
X32054Y46846D01*
X32112Y46928D01*
X32165Y47012D01*
X32216Y47098D01*
X32263Y47186D01*
X32306Y47276D01*
X32346Y47367D01*
X32383Y47460D01*
X32416Y47555D01*
X32445Y47650D01*
X32470Y47747D01*
X32491Y47844D01*
X32509Y47942D01*
X32522Y48041D01*
X32532Y48141D01*
X32538Y48240D01*
X32540Y48340D01*
X32538Y48440D01*
X32533Y48539D01*
X32523Y48639D01*
X32510Y48738D01*
X32493Y48836D01*
X32472Y48934D01*
X32447Y49030D01*
X32419Y49126D01*
X32386Y49220D01*
X32350Y49313D01*
X32310Y49405D01*
X32267Y49495D01*
X32220Y49583D01*
X32169Y49669D01*
X32115Y49752D01*
X32058Y49834D01*
X31997Y49914D01*
X31934Y49990D01*
X31867Y50065D01*
X31798Y50137D01*
X31726Y50205D01*
X31651Y50271D01*
X31573Y50335D01*
X31494Y50395D01*
X31412Y50452D01*
X31328Y50505D01*
X31242Y50556D01*
X31154Y50603D01*
X31064Y50647D01*
X30973Y50687D01*
X30880Y50723D01*
X30786Y50757D01*
X30690Y50786D01*
X30594Y50811D01*
X30496Y50833D01*
X30398Y50851D01*
X30300Y50865D01*
X30200Y50875D01*
X30101Y50882D01*
X30001Y50884D01*
X29901Y50882D01*
X29801Y50876D01*
X29702Y50866D01*
X29603Y50853D01*
X29505Y50835D01*
X29408Y50813D01*
X29311Y50787D01*
X29216Y50758D01*
X29122Y50725D01*
X29029Y50688D01*
X28938Y50648D01*
X28848Y50604D01*
X28760Y50557D01*
X28674Y50506D01*
X28590Y50453D01*
X28508Y50396D01*
X28428Y50335D01*
X28351Y50272D01*
X28277Y50206D01*
X28205Y50137D01*
X28135Y50065D01*
X28069Y49990D01*
X28006Y49913D01*
X27946Y49834D01*
X27888Y49752D01*
X27835Y49668D01*
X27784Y49582D01*
X27737Y49494D01*
X27694Y49404D01*
X27654Y49313D01*
X27617Y49220D01*
X27584Y49125D01*
X27555Y49030D01*
X27530Y48933D01*
X27509Y48836D01*
X27491Y48738D01*
X27478Y48639D01*
X27468Y48539D01*
X27462Y48440D01*
X27460Y48340D01*
X27460Y48340D01*
G37*
D13*
X26825Y48340D02*
X26826Y48240D01*
X26831Y48141D01*
X26838Y48041D01*
X26849Y47942D01*
X26862Y47843D01*
X26879Y47744D01*
X26899Y47647D01*
X26922Y47550D01*
X26948Y47453D01*
X26977Y47358D01*
X27009Y47263D01*
X27044Y47170D01*
X27082Y47077D01*
X27123Y46986D01*
X27166Y46897D01*
X27213Y46809D01*
X27263Y46722D01*
X27315Y46637D01*
X27370Y46554D01*
X27428Y46472D01*
X27488Y46393D01*
X27551Y46315D01*
X27616Y46239D01*
X27683Y46166D01*
X27753Y46094D01*
X27825Y46025D01*
X27899Y45958D01*
X27975Y45894D01*
X28053Y45831D01*
X28133Y45772D01*
X28214Y45714D01*
X28298Y45660D01*
X28383Y45608D01*
X28470Y45558D01*
X28558Y45511D01*
X28647Y45467D01*
X28738Y45426D01*
X28830Y45388D01*
X28924Y45352D01*
X29018Y45319D01*
X29113Y45290D01*
X29209Y45263D01*
X29306Y45239D01*
X29404Y45219D01*
X29502Y45201D01*
X29601Y45187D01*
X29700Y45175D01*
X29799Y45167D01*
X29899Y45162D01*
X29999Y45160D01*
X30099Y45162D01*
X30198Y45166D01*
X30298Y45174D01*
X30397Y45185D01*
X30496Y45199D01*
X30594Y45217D01*
X30692Y45237D01*
X30789Y45261D01*
X30885Y45288D01*
X30980Y45317D01*
X31074Y45350D01*
X31168Y45386D01*
X31260Y45424D01*
X31350Y45466D01*
X31440Y45510D01*
X31528Y45557D01*
X31615Y45606D01*
X31700Y45658D01*
X31783Y45713D01*
X31865Y45770D01*
X31945Y45830D01*
X32023Y45893D01*
X32099Y45957D01*
X32173Y46025D01*
X32244Y46094D01*
X32314Y46166D01*
X32381Y46239D01*
X32446Y46315D01*
X32508Y46393D01*
X32568Y46473D01*
X32625Y46555D01*
X32680Y46638D01*
X32732Y46723D01*
X32782Y46810D01*
X32829Y46898D01*
X32873Y46987D01*
X32914Y47078D01*
X32952Y47171D01*
X32987Y47264D01*
X33020Y47358D01*
X33049Y47454D01*
X33075Y47550D01*
X33099Y47647D01*
X33119Y47745D01*
X33136Y47843D01*
X33150Y47942D01*
X33161Y48041D01*
X33169Y48141D01*
X33173Y48240D01*
X33175Y48340D01*
X33174Y48440D01*
X33169Y48539D01*
X33162Y48639D01*
X33151Y48738D01*
X33138Y48837D01*
X33121Y48936D01*
X33101Y49033D01*
X33078Y49130D01*
X33052Y49227D01*
X33023Y49322D01*
X32991Y49417D01*
X32956Y49510D01*
X32918Y49603D01*
X32877Y49694D01*
X32834Y49783D01*
X32787Y49871D01*
X32737Y49958D01*
X32685Y50043D01*
X32630Y50126D01*
X32572Y50208D01*
X32512Y50287D01*
X32449Y50365D01*
X32384Y50441D01*
X32317Y50514D01*
X32247Y50586D01*
X32175Y50655D01*
X32101Y50722D01*
X32025Y50786D01*
X31947Y50849D01*
X31867Y50908D01*
X31786Y50966D01*
X31702Y51020D01*
X31617Y51072D01*
X31530Y51122D01*
X31442Y51169D01*
X31353Y51213D01*
X31262Y51254D01*
X31170Y51292D01*
X31076Y51328D01*
X30982Y51361D01*
X30887Y51390D01*
X30791Y51417D01*
X30694Y51441D01*
X30596Y51461D01*
X30498Y51479D01*
X30399Y51493D01*
X30300Y51505D01*
X30201Y51513D01*
X30101Y51518D01*
X30001Y51520D01*
X29901Y51518D01*
X29802Y51514D01*
X29702Y51506D01*
X29603Y51495D01*
X29504Y51481D01*
X29406Y51463D01*
X29308Y51443D01*
X29211Y51419D01*
X29115Y51392D01*
X29020Y51363D01*
X28926Y51330D01*
X28832Y51294D01*
X28740Y51256D01*
X28650Y51214D01*
X28560Y51170D01*
X28472Y51123D01*
X28385Y51074D01*
X28300Y51022D01*
X28217Y50967D01*
X28135Y50910D01*
X28055Y50850D01*
X27977Y50787D01*
X27901Y50723D01*
X27827Y50655D01*
X27756Y50586D01*
X27686Y50514D01*
X27619Y50441D01*
X27554Y50365D01*
X27492Y50287D01*
X27432Y50207D01*
X27375Y50125D01*
X27320Y50042D01*
X27268Y49957D01*
X27218Y49870D01*
X27171Y49782D01*
X27127Y49693D01*
X27086Y49602D01*
X27048Y49509D01*
X27013Y49416D01*
X26980Y49322D01*
X26951Y49226D01*
X26925Y49130D01*
X26901Y49033D01*
X26881Y48935D01*
X26864Y48837D01*
X26850Y48738D01*
X26839Y48639D01*
X26831Y48539D01*
X26827Y48440D01*
X26825Y48340D01*
X26825Y48340D01*
G36*
X26825Y48340D02*
X26826Y48240D01*
X26831Y48141D01*
X26838Y48041D01*
X26849Y47942D01*
X26862Y47843D01*
X26879Y47744D01*
X26899Y47647D01*
X26922Y47550D01*
X26948Y47453D01*
X26977Y47358D01*
X27009Y47263D01*
X27044Y47170D01*
X27082Y47077D01*
X27123Y46986D01*
X27166Y46897D01*
X27213Y46809D01*
X27263Y46722D01*
X27315Y46637D01*
X27370Y46554D01*
X27428Y46472D01*
X27488Y46393D01*
X27551Y46315D01*
X27616Y46239D01*
X27683Y46166D01*
X27753Y46094D01*
X27825Y46025D01*
X27899Y45958D01*
X27975Y45894D01*
X28053Y45831D01*
X28133Y45772D01*
X28214Y45714D01*
X28298Y45660D01*
X28383Y45608D01*
X28470Y45558D01*
X28558Y45511D01*
X28647Y45467D01*
X28738Y45426D01*
X28830Y45388D01*
X28924Y45352D01*
X29018Y45319D01*
X29113Y45290D01*
X29209Y45263D01*
X29306Y45239D01*
X29404Y45219D01*
X29502Y45201D01*
X29601Y45187D01*
X29700Y45175D01*
X29799Y45167D01*
X29899Y45162D01*
X29999Y45160D01*
X30099Y45162D01*
X30198Y45166D01*
X30298Y45174D01*
X30397Y45185D01*
X30496Y45199D01*
X30594Y45217D01*
X30692Y45237D01*
X30789Y45261D01*
X30885Y45288D01*
X30980Y45317D01*
X31074Y45350D01*
X31168Y45386D01*
X31260Y45424D01*
X31350Y45466D01*
X31440Y45510D01*
X31528Y45557D01*
X31615Y45606D01*
X31700Y45658D01*
X31783Y45713D01*
X31865Y45770D01*
X31945Y45830D01*
X32023Y45893D01*
X32099Y45957D01*
X32173Y46025D01*
X32244Y46094D01*
X32314Y46166D01*
X32381Y46239D01*
X32446Y46315D01*
X32508Y46393D01*
X32568Y46473D01*
X32625Y46555D01*
X32680Y46638D01*
X32732Y46723D01*
X32782Y46810D01*
X32829Y46898D01*
X32873Y46987D01*
X32914Y47078D01*
X32952Y47171D01*
X32987Y47264D01*
X33020Y47358D01*
X33049Y47454D01*
X33075Y47550D01*
X33099Y47647D01*
X33119Y47745D01*
X33136Y47843D01*
X33150Y47942D01*
X33161Y48041D01*
X33169Y48141D01*
X33173Y48240D01*
X33175Y48340D01*
X33174Y48440D01*
X33169Y48539D01*
X33162Y48639D01*
X33151Y48738D01*
X33138Y48837D01*
X33121Y48936D01*
X33101Y49033D01*
X33078Y49130D01*
X33052Y49227D01*
X33023Y49322D01*
X32991Y49417D01*
X32956Y49510D01*
X32918Y49603D01*
X32877Y49694D01*
X32834Y49783D01*
X32787Y49871D01*
X32737Y49958D01*
X32685Y50043D01*
X32630Y50126D01*
X32572Y50208D01*
X32512Y50287D01*
X32449Y50365D01*
X32384Y50441D01*
X32317Y50514D01*
X32247Y50586D01*
X32175Y50655D01*
X32101Y50722D01*
X32025Y50786D01*
X31947Y50849D01*
X31867Y50908D01*
X31786Y50966D01*
X31702Y51020D01*
X31617Y51072D01*
X31530Y51122D01*
X31442Y51169D01*
X31353Y51213D01*
X31262Y51254D01*
X31170Y51292D01*
X31076Y51328D01*
X30982Y51361D01*
X30887Y51390D01*
X30791Y51417D01*
X30694Y51441D01*
X30596Y51461D01*
X30498Y51479D01*
X30399Y51493D01*
X30300Y51505D01*
X30201Y51513D01*
X30101Y51518D01*
X30001Y51520D01*
X29901Y51518D01*
X29802Y51514D01*
X29702Y51506D01*
X29603Y51495D01*
X29504Y51481D01*
X29406Y51463D01*
X29308Y51443D01*
X29211Y51419D01*
X29115Y51392D01*
X29020Y51363D01*
X28926Y51330D01*
X28832Y51294D01*
X28740Y51256D01*
X28650Y51214D01*
X28560Y51170D01*
X28472Y51123D01*
X28385Y51074D01*
X28300Y51022D01*
X28217Y50967D01*
X28135Y50910D01*
X28055Y50850D01*
X27977Y50787D01*
X27901Y50723D01*
X27827Y50655D01*
X27756Y50586D01*
X27686Y50514D01*
X27619Y50441D01*
X27554Y50365D01*
X27492Y50287D01*
X27432Y50207D01*
X27375Y50125D01*
X27320Y50042D01*
X27268Y49957D01*
X27218Y49870D01*
X27171Y49782D01*
X27127Y49693D01*
X27086Y49602D01*
X27048Y49509D01*
X27013Y49416D01*
X26980Y49322D01*
X26951Y49226D01*
X26925Y49130D01*
X26901Y49033D01*
X26881Y48935D01*
X26864Y48837D01*
X26850Y48738D01*
X26839Y48639D01*
X26831Y48539D01*
X26827Y48440D01*
X26825Y48340D01*
X26825Y48340D01*
G37*
D11*
X34542Y48007D02*
X34542Y48673D01*
X34875Y48673D01*
X34986Y48562D01*
X34986Y48451D01*
X34875Y48340D01*
X34542Y48340D01*
D11*
X34875Y48340D02*
X34986Y48229D01*
X34986Y48007D01*
D11*
X35347Y48007D02*
X35347Y48673D01*
X35292Y48673D01*
X35208Y48562D01*
D11*
X35208Y48007D02*
X35458Y48007D01*
D11*
X39472Y43007D02*
X39472Y43673D01*
X39806Y43673D01*
X39917Y43562D01*
X39917Y43451D01*
X39806Y43340D01*
X39472Y43340D01*
D11*
X39806Y43340D02*
X39917Y43229D01*
X39917Y43007D01*
D11*
X40139Y43562D02*
X40139Y43590D01*
X40222Y43673D01*
X40444Y43673D01*
X40528Y43590D01*
X40528Y43396D01*
X40139Y43007D01*
X40528Y43007D01*
D11*
X44472Y38007D02*
X44472Y38673D01*
X44806Y38673D01*
X44917Y38562D01*
X44917Y38451D01*
X44806Y38340D01*
X44472Y38340D01*
D11*
X44806Y38340D02*
X44917Y38229D01*
X44917Y38007D01*
D11*
X45139Y38562D02*
X45139Y38590D01*
X45222Y38673D01*
X45444Y38673D01*
X45528Y38590D01*
X45528Y38479D01*
X45389Y38340D01*
X45528Y38201D01*
X45528Y38090D01*
X45444Y38007D01*
X45222Y38007D01*
X45139Y38090D01*
X45139Y38118D01*
D11*
X45306Y38340D02*
X45389Y38340D01*
D11*
X49472Y33007D02*
X49472Y33673D01*
X49806Y33673D01*
X49917Y33562D01*
X49917Y33451D01*
X49806Y33340D01*
X49472Y33340D01*
D11*
X49806Y33340D02*
X49917Y33229D01*
X49917Y33007D01*
D11*
X50472Y33007D02*
X50472Y33673D01*
X50417Y33673D01*
X50139Y33257D01*
X50139Y33146D01*
X50528Y33146D01*
D11*
X54472Y28007D02*
X54472Y28673D01*
X54806Y28673D01*
X54917Y28562D01*
X54917Y28451D01*
X54806Y28340D01*
X54472Y28340D01*
D11*
X54806Y28340D02*
X54917Y28229D01*
X54917Y28007D01*
D11*
X55139Y28118D02*
X55139Y28090D01*
X55222Y28007D01*
X55444Y28007D01*
X55528Y28090D01*
X55528Y28284D01*
X55444Y28368D01*
X55139Y28368D01*
X55139Y28673D01*
X55472Y28673D01*
D11*
X9542Y43007D02*
X9542Y43673D01*
X9875Y43673D01*
X9986Y43562D01*
X9986Y43451D01*
X9875Y43340D01*
X9542Y43340D01*
D11*
X10347Y43007D02*
X10347Y43673D01*
X10292Y43673D01*
X10208Y43562D01*
D11*
X10208Y43007D02*
X10458Y43007D01*
D10*
X8730Y42070D02*
X11270Y42070D01*
X11270Y39530D01*
X8730Y39530D01*
X8730Y42070D01*
D10*
X8730Y44610D02*
X11270Y44610D01*
X11270Y42070D01*
X8730Y42070D01*
X8730Y44610D01*
D14*
X12044Y44090D02*
X12044Y43215D01*
X12544Y42590D01*
X13044Y43215D01*
X13044Y44090D01*
D14*
X14669Y42965D02*
X14669Y42840D01*
X14419Y42590D01*
X13794Y42590D01*
X13544Y42840D01*
X13544Y43840D01*
X13794Y44090D01*
X14419Y44090D01*
X14669Y43840D01*
X14669Y43715D01*
D14*
X16294Y42965D02*
X16294Y42840D01*
X16044Y42590D01*
X15419Y42590D01*
X15169Y42840D01*
X15169Y43840D01*
X15419Y44090D01*
X16044Y44090D01*
X16294Y43840D01*
X16294Y43715D01*
D14*
X12732Y40675D02*
X13169Y40675D01*
X13169Y40300D01*
X12919Y40050D01*
X12294Y40050D01*
X12044Y40300D01*
X12044Y41300D01*
X12294Y41550D01*
X12919Y41550D01*
X13169Y41300D01*
X13169Y41175D01*
D14*
X13669Y40050D02*
X13669Y41550D01*
D14*
X13669Y41425D02*
X14669Y40488D01*
D14*
X14669Y40050D02*
X14669Y41550D01*
D14*
X15169Y40050D02*
X15169Y41550D01*
X16044Y41550D01*
X16294Y41300D01*
X16294Y40300D01*
X16044Y40050D01*
X15169Y40050D01*
D11*
X19472Y43007D02*
X19472Y43673D01*
X19806Y43673D01*
X19917Y43562D01*
X19917Y43451D01*
X19806Y43340D01*
X19472Y43340D01*
D11*
X19806Y43340D02*
X19917Y43229D01*
X19917Y43007D01*
D11*
X20528Y43562D02*
X20528Y43590D01*
X20444Y43673D01*
X20222Y43673D01*
X20139Y43590D01*
X20139Y43090D01*
X20222Y43007D01*
X20444Y43007D01*
X20528Y43090D01*
X20528Y43257D01*
X20444Y43340D01*
X20139Y43340D01*
D11*
X34694Y43007D02*
X34694Y43673D01*
D11*
X34472Y43673D02*
X34917Y43673D01*
D11*
X35139Y43562D02*
X35139Y43590D01*
X35222Y43673D01*
X35444Y43673D01*
X35528Y43590D01*
X35528Y43396D01*
X35139Y43007D01*
X35528Y43007D01*
D12*
X40080Y44737D02*
X39953Y41816D01*
D12*
X39699Y41562D02*
X39953Y41816D01*
D12*
X39699Y41562D02*
X30301Y41562D01*
D12*
X30047Y41816D02*
X30301Y41562D01*
D12*
X30047Y41816D02*
X29920Y44737D01*
D13*
X30251Y42172D02*
X30270Y42075D01*
X30325Y41992D01*
X30408Y41937D01*
X30505Y41918D01*
X30602Y41937D01*
X30685Y41992D01*
X30740Y42075D01*
X30759Y42172D01*
X30740Y42269D01*
X30685Y42352D01*
X30602Y42407D01*
X30505Y42426D01*
X30408Y42407D01*
X30325Y42352D01*
X30270Y42269D01*
X30251Y42172D01*
X30251Y42172D01*
G36*
X30251Y42172D02*
X30270Y42075D01*
X30325Y41992D01*
X30408Y41937D01*
X30505Y41918D01*
X30602Y41937D01*
X30685Y41992D01*
X30740Y42075D01*
X30759Y42172D01*
X30740Y42269D01*
X30685Y42352D01*
X30602Y42407D01*
X30505Y42426D01*
X30408Y42407D01*
X30325Y42352D01*
X30270Y42269D01*
X30251Y42172D01*
X30251Y42172D01*
G37*
D13*
X29666Y45880D02*
X40334Y45880D01*
X40334Y45118D01*
X29666Y45118D01*
X29666Y45880D01*
G36*
X29666Y45880D02*
X40334Y45880D01*
X40334Y45118D01*
X29666Y45118D01*
X29666Y45880D01*
G37*
D13*
X29666Y45118D02*
X31571Y45118D01*
X31571Y44610D01*
X29666Y44610D01*
X29666Y45118D01*
G36*
X29666Y45118D02*
X31571Y45118D01*
X31571Y44610D01*
X29666Y44610D01*
X29666Y45118D01*
G37*
D13*
X33349Y45118D02*
X34111Y45118D01*
X34111Y44610D01*
X33349Y44610D01*
X33349Y45118D01*
G36*
X33349Y45118D02*
X34111Y45118D01*
X34111Y44610D01*
X33349Y44610D01*
X33349Y45118D01*
G37*
D13*
X35889Y45118D02*
X36651Y45118D01*
X36651Y44610D01*
X35889Y44610D01*
X35889Y45118D01*
G36*
X35889Y45118D02*
X36651Y45118D01*
X36651Y44610D01*
X35889Y44610D01*
X35889Y45118D01*
G37*
D13*
X38429Y45118D02*
X40334Y45118D01*
X40334Y44610D01*
X38429Y44610D01*
X38429Y45118D01*
G36*
X38429Y45118D02*
X40334Y45118D01*
X40334Y44610D01*
X38429Y44610D01*
X38429Y45118D01*
G37*
D11*
X14472Y43673D02*
X14472Y43090D01*
X14556Y43007D01*
X14833Y43007D01*
X14917Y43090D01*
X14917Y43673D01*
D11*
X15139Y43562D02*
X15139Y43590D01*
X15222Y43673D01*
X15444Y43673D01*
X15528Y43590D01*
X15528Y43396D01*
X15139Y43007D01*
X15528Y43007D01*
D11*
X4764Y48007D02*
X4764Y48673D01*
D11*
X4542Y48673D02*
X4986Y48673D01*
D11*
X5347Y48007D02*
X5347Y48673D01*
X5292Y48673D01*
X5208Y48562D01*
D11*
X5208Y48007D02*
X5458Y48007D01*
D12*
X10080Y49737D02*
X9953Y46816D01*
D12*
X9699Y46562D02*
X9953Y46816D01*
D12*
X9699Y46562D02*
X301Y46562D01*
D12*
X47Y46816D02*
X301Y46562D01*
D12*
X47Y46816D02*
X-80Y49737D01*
D13*
X251Y47172D02*
X270Y47075D01*
X325Y46992D01*
X408Y46937D01*
X505Y46918D01*
X602Y46937D01*
X685Y46992D01*
X740Y47075D01*
X759Y47172D01*
X740Y47269D01*
X685Y47352D01*
X602Y47407D01*
X505Y47426D01*
X408Y47407D01*
X325Y47352D01*
X270Y47269D01*
X251Y47172D01*
X251Y47172D01*
G36*
X251Y47172D02*
X270Y47075D01*
X325Y46992D01*
X408Y46937D01*
X505Y46918D01*
X602Y46937D01*
X685Y46992D01*
X740Y47075D01*
X759Y47172D01*
X740Y47269D01*
X685Y47352D01*
X602Y47407D01*
X505Y47426D01*
X408Y47407D01*
X325Y47352D01*
X270Y47269D01*
X251Y47172D01*
X251Y47172D01*
G37*
D13*
X-334Y50880D02*
X10334Y50880D01*
X10334Y50118D01*
X-334Y50118D01*
X-334Y50880D01*
G36*
X-334Y50880D02*
X10334Y50880D01*
X10334Y50118D01*
X-334Y50118D01*
X-334Y50880D01*
G37*
D13*
X-334Y50118D02*
X1571Y50118D01*
X1571Y49610D01*
X-334Y49610D01*
X-334Y50118D01*
G36*
X-334Y50118D02*
X1571Y50118D01*
X1571Y49610D01*
X-334Y49610D01*
X-334Y50118D01*
G37*
D13*
X3349Y50118D02*
X4111Y50118D01*
X4111Y49610D01*
X3349Y49610D01*
X3349Y50118D01*
G36*
X3349Y50118D02*
X4111Y50118D01*
X4111Y49610D01*
X3349Y49610D01*
X3349Y50118D01*
G37*
D13*
X5889Y50118D02*
X6651Y50118D01*
X6651Y49610D01*
X5889Y49610D01*
X5889Y50118D01*
G36*
X5889Y50118D02*
X6651Y50118D01*
X6651Y49610D01*
X5889Y49610D01*
X5889Y50118D01*
G37*
D13*
X8429Y50118D02*
X10334Y50118D01*
X10334Y49610D01*
X8429Y49610D01*
X8429Y50118D01*
G36*
X8429Y50118D02*
X10334Y50118D01*
X10334Y49610D01*
X8429Y49610D01*
X8429Y50118D01*
G37*
M02*
