%
M48
METRIC,TZ,000.000
ICI,OFF
T1C1.016
T2C1
T3C3.2
%
T1
X8730Y48340
T1
X11270Y48340
T1
X13730Y48340
T1
X16270Y48340
T1
X18730Y48340
T1
X21270Y48340
T1
X23730Y48340
T1
X26270Y48340
T1
X28730Y48340
T1
X31270Y48340
T2
X10000Y43340
T2
X10000Y40800
T1
X32460Y43340
T1
X35000Y43340
T1
X37540Y43340
T2
X48020Y45880
T2
X50560Y45880
T2
X53100Y45880
T2
X65800Y45880
T2
X68340Y45880
T2
X70880Y45880
T2
X73420Y45880
T2
X49036Y94140
T2
X46496Y94140
T2
X43956Y94140
T2
X73420Y94140
T2
X75960Y45880
T2
X78500Y45880
T2
X38876Y94140
T2
X78500Y94140
T2
X75960Y94140
T2
X51576Y94140
T2
X70880Y94140
T2
X68340Y94140
T2
X65800Y94140
T2
X63260Y94140
T2
X60720Y94140
T2
X56656Y94140
T2
X54116Y94140
T2
X41416Y94140
T2
X58180Y45880
T2
X55640Y45880
T2
X60720Y45880
T3
X30240Y94140
T3
X81040Y78900
T3
X28970Y45880
T1
X2460Y48340
T1
X5000Y48340
T1
X7540Y48340
M30
